<svg class="main-svg" xmlns="http://www.w3.org/2000/svg" xmlns:xlink="http://www.w3.org/1999/xlink" width="700" height="500" style="" viewBox="0 0 700 500"><rect x="0" y="0" width="700" height="500" style="fill: rgb(255, 255, 255); fill-opacity: 1;"/><defs id="defs-b4d89e"><g class="clips"><clipPath id="clipb4d89exyplot" class="plotclip"><rect width="450" height="320"/></clipPath><clipPath class="axesclip" id="clipb4d89ex"><rect x="170" y="0" width="450" height="500"/></clipPath><clipPath class="axesclip" id="clipb4d89ey"><rect x="0" y="100" width="700" height="320"/></clipPath><clipPath class="axesclip" id="clipb4d89exy"><rect x="170" y="100" width="450" height="320"/></clipPath></g><g class="gradients"/><g class="patterns"/></defs><g class="bglayer"><rect class="bg" x="170" y="100" width="450" height="320" style="fill: rgb(229, 236, 246); fill-opacity: 1; stroke-width: 0;"/></g><g class="layer-below"><g class="imagelayer"/><g class="shapelayer"/></g><g class="cartesianlayer"><g class="subplot xy"><g class="layer-subplot"><g class="shapelayer"/><g class="imagelayer"/></g><g class="gridlayer"><g class="x"><path class="xgrid crisp" transform="translate(286.49,0)" d="M0,100v320" style="stroke: rgb(255, 255, 255); stroke-opacity: 1; stroke-width: 1px;"/><path class="xgrid crisp" transform="translate(373.12,0)" d="M0,100v320" style="stroke: rgb(255, 255, 255); stroke-opacity: 1; stroke-width: 1px;"/><path class="xgrid crisp" transform="translate(459.76,0)" d="M0,100v320" style="stroke: rgb(255, 255, 255); stroke-opacity: 1; stroke-width: 1px;"/><path class="xgrid crisp" transform="translate(546.39,0)" d="M0,100v320" style="stroke: rgb(255, 255, 255); stroke-opacity: 1; stroke-width: 1px;"/></g><g class="y"/></g><g class="zerolinelayer"><path class="xzl zl crisp" transform="translate(199.86,0)" d="M0,100v320" style="stroke: rgb(255, 255, 255); stroke-opacity: 1; stroke-width: 2px;"/></g><path class="xlines-below"/><path class="ylines-below"/><g class="overlines-below"/><g class="xaxislayer-below"/><g class="yaxislayer-below"/><g class="overaxes-below"/><g class="plot" transform="translate(170,100)" clip-path="url(#clipb4d89exyplot)"><g class="violinlayer mlayer"><g class="trace violins" style="opacity: 1;"><path class="violin" d="M24.23,304L24.23,303.67Q24.92,303.45 25.24,303.25C25.59,303.03 25.94,302.75 26.25,302.4C26.62,301.99 26.95,301.46 27.26,300.87C27.64,300.14 27.96,299.27 28.27,298.32C28.65,297.16 28.97,295.82 29.28,294.4C29.65,292.72 29.97,290.83 30.29,288.87C30.65,286.64 30.98,284.21 31.3,281.72C31.65,279.02 31.98,276.12 32.31,273.24C32.65,270.24 32.98,267.1 33.32,264.05C33.66,261.03 33.98,257.94 34.33,255.04C34.65,252.33 34.97,249.6 35.33,247.17C35.64,245.07 35.94,242.96 36.34,241.3C36.64,240.03 36.85,238.58 37.35,238.01C37.63,237.68 38.07,237.43 38.36,237.54C38.79,237.7 39.07,238.86 39.37,239.73C39.78,240.92 40.06,242.54 40.38,244.12C40.75,245.95 41.06,248.02 41.39,250.07C41.74,252.26 42.07,254.58 42.4,256.86C42.74,259.17 43.07,261.54 43.41,263.82C43.74,266.04 44.07,268.27 44.42,270.38C44.75,272.35 45.07,274.29 45.43,276.09C45.75,277.71 46.08,279.27 46.44,280.68C46.76,281.9 47.08,283.06 47.45,284.08C47.76,284.94 48.09,285.72 48.46,286.4C48.77,286.98 49.12,287.47 49.47,287.94C49.79,288.37 50.13,288.71 50.47,289.1C50.8,289.48 51.15,289.84 51.48,290.25C51.83,290.68 52.16,291.12 52.49,291.6C52.84,292.1 53.17,292.66 53.5,293.2C53.84,293.76 54.17,294.35 54.51,294.91C54.84,295.46 55.17,296.03 55.52,296.55C55.85,297.04 56.18,297.52 56.53,297.95C56.85,298.35 57.19,298.72 57.54,299.04C57.87,299.34 58.2,299.61 58.55,299.83C58.88,300.04 59.22,300.21 59.56,300.36C59.89,300.51 60.23,300.62 60.57,300.73C60.9,300.83 61.24,300.91 61.58,300.99C61.92,301.07 62.25,301.15 62.59,301.23C62.93,301.31 63.26,301.4 63.6,301.49C63.93,301.58 64.27,301.67 64.6,301.76C64.94,301.85 65.27,301.95 65.61,302.03C65.95,302.11 66.28,302.18 66.62,302.23C66.96,302.28 67.29,302.32 67.63,302.32C67.97,302.32 68.3,302.3 68.64,302.26C68.98,302.22 69.31,302.15 69.65,302.07C69.99,301.99 70.32,301.89 70.66,301.8C71,301.72 71.33,301.62 71.67,301.56C72,301.5 72.34,301.45 72.68,301.45C73.02,301.45 73.36,301.47 73.69,301.53C74.03,301.59 74.37,301.7 74.7,301.81C75.04,301.92 75.37,302.07 75.71,302.21C76.05,302.35 76.38,302.5 76.72,302.63C77.06,302.76 77.39,302.89 77.73,302.99C78.06,303.09 78.39,303.18 78.73,303.24C79.06,303.3 79.4,303.34 79.74,303.37C80.08,303.4 80.41,303.41 80.75,303.42C81.09,303.43 81.42,303.42 81.76,303.42C82.1,303.42 82.43,303.43 82.77,303.43C83.11,303.44 83.44,303.44 83.78,303.45C84.12,303.46 84.45,303.49 84.79,303.51C85.13,303.53 85.46,303.56 85.8,303.58C86.14,303.61 86.47,303.64 86.81,303.66C87.15,303.68 87.48,303.7 87.82,303.71C88.16,303.72 88.49,303.74 88.83,303.74C89.17,303.74 89.5,303.75 89.84,303.74C90.18,303.73 90.51,303.72 90.85,303.7C91.19,303.68 91.52,303.66 91.86,303.63C92.19,303.61 92.53,303.57 92.86,303.55C93.2,303.52 93.53,303.5 93.87,303.48C94.21,303.46 94.54,303.45 94.88,303.45C95.22,303.45 95.55,303.46 95.89,303.47C96.23,303.48 96.56,303.51 96.9,303.54C97.24,303.57 97.57,303.6 97.91,303.63C98.25,303.66 98.58,303.69 98.92,303.72C99.26,303.75 99.59,303.78 99.93,303.8C100.27,303.82 100.6,303.83 100.94,303.84C101.28,303.85 101.61,303.86 101.95,303.86C102.29,303.86 102.62,303.85 102.96,303.85C103.3,303.84 103.63,303.84 103.97,303.83C104.31,303.82 104.64,303.82 104.98,303.81C105.32,303.81 105.65,303.8 105.99,303.8C106.32,303.8 106.66,303.8 106.99,303.8C107.33,303.8 107.66,303.81 108,303.82C108.34,303.82 108.67,303.83 109.01,303.83C109.35,303.83 109.68,303.84 110.02,303.84C110.36,303.84 110.69,303.83 111.03,303.83C111.37,303.83 111.7,303.82 112.04,303.82C112.38,303.82 112.71,303.81 113.05,303.81C113.39,303.8 113.72,303.8 114.06,303.79C114.4,303.79 114.73,303.78 115.07,303.78C115.41,303.78 115.74,303.78 116.08,303.78C116.42,303.78 116.75,303.79 117.09,303.8C117.43,303.81 117.76,303.82 118.1,303.83C118.44,303.84 118.77,303.86 119.11,303.87C119.45,303.88 119.78,303.9 120.12,303.91C120.45,303.92 120.79,303.93 121.12,303.94C121.46,303.95 121.79,303.96 122.13,303.97C122.47,303.98 122.8,303.98 123.14,303.98C123.48,303.98 123.81,303.99 124.15,303.99C124.49,303.99 124.82,304 125.16,304C125.5,304 125.83,304 126.17,304C126.51,304 126.84,304 127.18,304C127.52,304 127.85,304 128.19,304C128.53,304 128.86,304 129.2,304C129.54,304 129.87,303.99 130.21,303.99C130.55,303.99 130.88,303.99 131.22,303.99C131.56,303.99 131.89,303.98 132.23,303.97C132.57,303.96 132.9,303.96 133.24,303.95C133.58,303.94 133.91,303.93 134.25,303.92C134.59,303.91 134.92,303.89 135.26,303.88C135.59,303.87 135.93,303.86 136.26,303.85C136.6,303.84 136.93,303.83 137.27,303.82C137.61,303.81 137.94,303.81 138.28,303.81C138.62,303.81 138.95,303.82 139.29,303.83C139.63,303.84 139.96,303.85 140.3,303.86C140.64,303.87 140.97,303.88 141.31,303.89C141.65,303.9 141.98,303.92 142.32,303.93C142.66,303.94 142.99,303.95 143.33,303.96C143.67,303.97 144,303.97 144.34,303.98C144.68,303.98 145.01,303.99 145.35,303.99C145.69,303.99 146.02,304 146.36,304C146.7,304 147.03,304 147.37,304C147.71,304 148.04,304 148.38,304C148.72,304 149.05,304 149.39,304C149.72,304 150.06,304 150.39,304C150.73,304 151.06,303.99 151.4,303.99C151.74,303.99 152.07,303.99 152.41,303.99C152.75,303.99 153.08,303.98 153.42,303.97C153.76,303.96 154.09,303.95 154.43,303.94C154.77,303.93 155.1,303.91 155.44,303.9C155.78,303.88 156.11,303.87 156.45,303.85C156.79,303.83 157.12,303.81 157.46,303.79C157.8,303.77 158.13,303.76 158.47,303.75C158.81,303.74 159.14,303.72 159.48,303.72C159.82,303.72 160.15,303.72 160.49,303.73C160.83,303.74 161.16,303.75 161.5,303.76C161.84,303.77 162.17,303.79 162.51,303.81C162.85,303.83 163.18,303.85 163.52,303.87C163.85,303.89 164.19,303.91 164.52,303.92C164.86,303.93 165.19,303.94 165.53,303.95C165.87,303.96 166.2,303.97 166.54,303.98C166.88,303.99 167.21,303.99 167.55,303.99C167.89,303.99 168.22,304 168.56,304C168.9,304 169.23,304 169.57,304C169.91,304 170.24,304 170.58,304C170.92,304 171.25,304 171.59,304C171.93,304 172.26,304 172.6,304C172.94,304 173.27,304 173.61,304C173.95,304 174.28,303.99 174.62,303.99C174.96,303.99 175.29,303.99 175.63,303.99C175.97,303.99 176.3,303.98 176.64,303.97C176.98,303.97 177.31,303.97 177.65,303.96C177.98,303.96 178.32,303.95 178.65,303.94C178.99,303.93 179.32,303.93 179.66,303.92C180,303.92 180.33,303.91 180.67,303.91C181.01,303.91 181.34,303.91 181.68,303.91C182.02,303.91 182.35,303.91 182.69,303.91C183.03,303.91 183.36,303.92 183.7,303.93C184.04,303.94 184.37,303.94 184.71,303.95C185.05,303.96 185.38,303.96 185.72,303.97C186.06,303.97 186.39,303.98 186.73,303.98C187.07,303.98 187.4,303.99 187.74,303.99C188.08,303.99 188.41,303.99 188.75,303.99C189.09,303.99 189.42,304 189.76,304C190.1,304 190.43,304 190.77,304C191.11,304 191.44,304 191.78,304C192.11,304 192.45,304 192.78,304C193.12,304 193.45,304 193.79,304C194.13,304 194.46,304 194.8,304C195.14,304 195.47,304 195.81,304C196.15,304 196.48,304 196.82,304C197.16,304 197.49,304 197.83,304C198.17,304 198.5,304 198.84,304C199.18,304 199.51,304 199.85,304C200.19,304 200.52,304 200.86,304C201.2,304 201.53,304 201.87,304C202.21,304 202.54,304 202.88,304C203.22,304 203.55,304 203.89,304C204.23,304 204.56,304 204.9,304C205.24,304 205.57,304 205.91,304C206.25,304 206.58,304 206.92,304C207.25,304 207.59,304 207.92,304C208.26,304 208.59,304 208.93,304C209.27,304 209.6,304 209.94,304C210.28,304 210.61,304 210.95,304C211.29,304 211.62,304 211.96,304C212.3,304 212.63,304 212.97,304C213.31,304 213.64,304 213.98,304C214.32,304 214.65,304 214.99,304C215.33,304 215.66,303.99 216,303.99C216.34,303.99 216.67,303.98 217.01,303.98C217.35,303.98 217.68,303.97 218.02,303.97C218.36,303.96 218.69,303.96 219.03,303.95C219.37,303.95 219.7,303.94 220.04,303.94C220.38,303.93 220.71,303.93 221.05,303.92C221.38,303.92 221.72,303.91 222.05,303.91C222.39,303.91 222.72,303.91 223.06,303.91C223.4,303.91 223.73,303.92 224.07,303.92C224.41,303.92 224.74,303.93 225.08,303.93C225.42,303.94 225.75,303.94 226.09,303.95C226.43,303.96 226.76,303.96 227.1,303.97C227.44,303.97 227.77,303.98 228.11,303.98C228.45,303.98 228.78,303.99 229.12,303.99C229.46,303.99 229.79,304 230.13,304C230.47,304 230.8,304 231.14,304C231.48,304 231.81,304 232.15,304C232.49,304 232.82,304 233.16,304C233.5,304 233.83,304 234.17,304C234.51,304 234.84,304 235.18,304C235.51,304 235.85,304 236.18,304C236.52,304 236.85,304 237.19,304C237.53,304 237.86,303.99 238.2,303.99C238.54,303.99 238.87,303.98 239.21,303.98C239.55,303.97 239.88,303.97 240.22,303.96C240.56,303.95 240.89,303.94 241.23,303.92C241.57,303.9 241.9,303.88 242.24,303.86C242.58,303.84 242.91,303.81 243.25,303.79C243.59,303.76 243.92,303.73 244.26,303.71C244.6,303.69 244.93,303.67 245.27,303.66C245.61,303.65 245.94,303.63 246.28,303.63C246.62,303.63 246.95,303.63 247.29,303.64C247.63,303.65 247.96,303.67 248.3,303.69C248.64,303.71 248.97,303.73 249.31,303.76C249.64,303.78 249.98,303.82 250.31,303.84C250.65,303.86 250.98,303.88 251.32,303.9C251.66,303.92 251.99,303.93 252.33,303.94C252.67,303.95 253,303.96 253.34,303.97C253.68,303.98 254.01,303.98 254.35,303.99C254.69,303.99 255.02,304 255.36,304C255.7,304 256.03,304 256.37,304C256.71,304 257.04,304 257.38,304C257.72,304 258.05,304 258.39,304C258.73,304 259.06,304 259.4,304C259.74,304 260.07,304 260.41,304C260.75,304 261.08,304 261.42,304C261.76,304 262.09,304 262.43,304C262.77,304 263.1,304 263.44,304C263.77,304 264.11,304 264.44,304C264.78,304 265.11,304 265.45,304C265.79,304 266.12,304 266.46,304C266.8,304 267.13,304 267.47,304C267.81,304 268.14,304 268.48,304C268.82,304 269.15,303.99 269.49,303.99C269.83,303.99 270.16,303.99 270.5,303.99C270.84,303.99 271.17,303.98 271.51,303.98C271.85,303.98 272.18,303.97 272.52,303.97C272.86,303.96 273.19,303.96 273.53,303.95C273.87,303.94 274.2,303.94 274.54,303.93C274.88,303.92 275.21,303.91 275.55,303.91C275.89,303.91 276.22,303.91 276.56,303.91C276.9,303.91 277.23,303.91 277.57,303.91C277.9,303.91 278.24,303.92 278.57,303.92C278.91,303.93 279.24,303.93 279.58,303.94C279.92,303.95 280.25,303.95 280.59,303.96C280.93,303.96 281.26,303.97 281.6,303.97C281.94,303.97 282.27,303.98 282.61,303.98C282.95,303.98 283.28,303.98 283.62,303.98C283.96,303.98 284.29,303.97 284.63,303.97C284.97,303.97 285.3,303.96 285.64,303.96C285.98,303.95 286.31,303.95 286.65,303.94C286.99,303.94 287.32,303.93 287.66,303.93C288,303.92 288.33,303.91 288.67,303.91C289.01,303.91 289.34,303.91 289.68,303.91C290.02,303.91 290.35,303.91 290.69,303.91C291.03,303.91 291.36,303.92 291.7,303.92C292.04,303.93 292.37,303.93 292.71,303.94C293.04,303.95 293.38,303.95 293.71,303.96C294.05,303.97 294.38,303.97 294.72,303.98C295.06,303.98 295.39,303.99 295.73,303.99C296.07,303.99 296.4,303.99 296.74,303.99C297.08,303.99 297.41,304 297.75,304C298.09,304 298.42,304 298.76,304C299.1,304 299.43,304 299.77,304C300.11,304 300.44,304 300.78,304C301.12,304 301.45,304 301.79,304C302.13,304 302.46,304 302.8,304C303.14,304 303.47,304 303.81,304C304.15,304 304.48,304 304.82,304C305.16,304 305.49,304 305.83,304C306.17,304 306.5,304 306.84,304C307.17,304 307.51,304 307.84,304C308.18,304 308.51,304 308.85,304C309.19,304 309.52,304 309.86,304C310.2,304 310.53,304 310.87,304C311.21,304 311.54,304 311.88,304C312.22,304 312.55,304 312.89,304C313.23,304 313.56,304 313.9,304C314.24,304 314.57,304 314.91,304C315.25,304 315.58,304 315.92,304C316.26,304 316.59,304 316.93,304C317.27,304 317.6,304 317.94,304C318.28,304 318.61,304 318.95,304C319.29,304 319.62,304 319.96,304C320.3,304 320.63,304 320.97,304C321.3,304 321.64,304 321.97,304C322.31,304 322.64,304 322.98,304C323.32,304 323.65,304 323.99,304C324.33,304 324.66,304 325,304C325.34,304 325.67,303.99 326.01,303.99C326.35,303.99 326.68,303.99 327.02,303.99C327.36,303.99 327.69,303.98 328.03,303.98C328.37,303.97 328.7,303.97 329.04,303.96C329.38,303.95 329.71,303.95 330.05,303.94C330.39,303.94 330.72,303.93 331.06,303.93C331.4,303.92 331.73,303.91 332.07,303.91C332.41,303.91 332.74,303.91 333.08,303.91C333.42,303.91 333.75,303.91 334.09,303.91C334.43,303.91 334.76,303.92 335.1,303.93C335.43,303.93 335.77,303.94 336.1,303.94C336.44,303.95 336.77,303.95 337.11,303.96C337.45,303.97 337.78,303.97 338.12,303.98Q338.46,303.98 339.13,303.99L339.13,304" style="vector-effect: non-scaling-stroke; stroke-width: 2px; stroke: rgb(99, 110, 250); stroke-opacity: 1; fill: rgb(99, 110, 250); fill-opacity: 0.5;"/><path class="meanline" d="M43.88,266.9620056152344V304" style="fill: none; vector-effect: non-scaling-stroke; stroke-width: 2px; stroke-dasharray: 4px, 2px; stroke: rgb(99, 110, 250); stroke-opacity: 1;"/></g><g class="trace violins" style="opacity: 1;"><path class="violin" d="M24.23,259.69L24.23,259.43Q24.91,259.24 25.24,259.08C25.59,258.9 25.93,258.68 26.25,258.39C26.61,258.06 26.95,257.63 27.26,257.14C27.63,256.55 27.96,255.83 28.27,255.04C28.65,254.09 28.97,252.98 29.28,251.79C29.65,250.39 29.97,248.8 30.29,247.14C30.65,245.24 30.98,243.14 31.3,240.98C31.66,238.59 31.98,236.01 32.31,233.41C32.66,230.64 32.99,227.71 33.32,224.82C33.66,221.86 33.99,218.8 34.33,215.85C34.66,212.98 34.98,210.05 35.33,207.35C35.65,204.87 35.97,202.38 36.34,200.24C36.65,198.45 36.92,196.62 37.35,195.35C37.64,194.48 37.95,193.33 38.36,193.23C38.66,193.16 39.08,193.59 39.37,194.01C39.85,194.7 40.07,196.12 40.38,197.38C40.76,198.94 41.07,200.83 41.39,202.68C41.74,204.71 42.07,206.93 42.4,209.09C42.74,211.29 43.07,213.57 43.41,215.74C43.74,217.84 44.07,219.95 44.42,221.91C44.74,223.71 45.07,225.48 45.43,227.09C45.75,228.5 46.07,229.86 46.44,231.05C46.75,232.06 47.08,232.99 47.45,233.79C47.76,234.47 48.1,235.06 48.46,235.59C48.78,236.06 49.13,236.43 49.47,236.85C49.8,237.26 50.15,237.63 50.47,238.07C50.82,238.55 51.16,239.06 51.48,239.63C51.84,240.26 52.16,240.98 52.49,241.71C52.84,242.49 53.17,243.35 53.5,244.19C53.84,245.05 54.17,245.95 54.51,246.8C54.84,247.62 55.17,248.45 55.52,249.21C55.84,249.9 56.17,250.58 56.53,251.17C56.85,251.69 57.18,252.18 57.54,252.57C57.86,252.91 58.2,253.2 58.55,253.42C58.87,253.62 59.22,253.74 59.56,253.84C59.89,253.93 60.23,253.96 60.57,254C60.91,254.04 61.24,254.03 61.58,254.07C61.92,254.11 62.26,254.15 62.59,254.23C62.93,254.31 63.27,254.42 63.6,254.55C63.94,254.68 64.27,254.86 64.6,255.03C64.94,255.2 65.27,255.39 65.61,255.56C65.95,255.73 66.28,255.91 66.62,256.04C66.95,256.17 67.29,256.29 67.63,256.35C67.96,256.41 68.3,256.43 68.64,256.43C68.98,256.43 69.31,256.37 69.65,256.32C69.99,256.26 70.32,256.17 70.66,256.1C71,256.03 71.33,255.95 71.67,255.92C72.01,255.89 72.35,255.89 72.68,255.93C73.02,255.97 73.36,256.06 73.69,256.18C74.03,256.31 74.37,256.49 74.7,256.68C75.04,256.87 75.37,257.1 75.71,257.31C76.05,257.52 76.38,257.74 76.72,257.93C77.05,258.11 77.39,258.29 77.73,258.43C78.06,258.57 78.39,258.68 78.73,258.76C79.06,258.84 79.4,258.87 79.74,258.9C80.08,258.93 80.41,258.92 80.75,258.92C81.09,258.92 81.42,258.9 81.76,258.89C82.1,258.88 82.43,258.87 82.77,258.87C83.11,258.87 83.44,258.87 83.78,258.88C84.12,258.89 84.45,258.92 84.79,258.95C85.13,258.98 85.46,259.02 85.8,259.05C86.14,259.08 86.47,259.12 86.81,259.15C87.15,259.18 87.48,259.21 87.82,259.23C88.16,259.25 88.49,259.25 88.83,259.25C89.17,259.25 89.5,259.23 89.84,259.2C90.18,259.17 90.51,259.13 90.85,259.09C91.19,259.04 91.52,258.98 91.86,258.93C92.19,258.88 92.53,258.82 92.86,258.78C93.2,258.74 93.53,258.69 93.87,258.67C94.21,258.65 94.54,258.64 94.88,258.65C95.22,258.66 95.55,258.69 95.89,258.73C96.23,258.77 96.56,258.83 96.9,258.89C97.24,258.95 97.57,259.02 97.91,259.09C98.25,259.15 98.58,259.22 98.92,259.28C99.26,259.34 99.59,259.39 99.93,259.43C100.27,259.47 100.6,259.5 100.94,259.53C101.28,259.55 101.61,259.57 101.95,259.58C102.29,259.59 102.62,259.59 102.96,259.59C103.3,259.59 103.63,259.59 103.97,259.59C104.31,259.59 104.64,259.58 104.98,259.58C105.32,259.58 105.65,259.58 105.99,259.58C106.32,259.58 106.66,259.59 106.99,259.59C107.33,259.59 107.66,259.6 108,259.6C108.34,259.61 108.67,259.62 109.01,259.62C109.35,259.62 109.68,259.62 110.02,259.62C110.36,259.62 110.69,259.61 111.03,259.6C111.37,259.59 111.7,259.57 112.04,259.55C112.38,259.53 112.71,259.51 113.05,259.49C113.39,259.47 113.72,259.44 114.06,259.42C114.4,259.4 114.73,259.37 115.07,259.35C115.41,259.33 115.74,259.32 116.08,259.32C116.42,259.32 116.75,259.31 117.09,259.32C117.43,259.33 117.76,259.34 118.1,259.36C118.44,259.38 118.77,259.41 119.11,259.43C119.45,259.46 119.78,259.49 120.12,259.51C120.45,259.53 120.79,259.55 121.12,259.57C121.46,259.59 121.79,259.61 122.13,259.63C122.47,259.64 122.8,259.65 123.14,259.66C123.48,259.67 123.81,259.67 124.15,259.68C124.49,259.68 124.82,259.69 125.16,259.69C125.5,259.69 125.83,259.69 126.17,259.69C126.51,259.69 126.84,259.69 127.18,259.69C127.52,259.69 127.85,259.69 128.19,259.69C128.53,259.69 128.86,259.69 129.2,259.69C129.54,259.69 129.87,259.69 130.21,259.69C130.55,259.69 130.88,259.68 131.22,259.68C131.56,259.67 131.89,259.67 132.23,259.66C132.57,259.65 132.9,259.64 133.24,259.63C133.58,259.62 133.91,259.61 134.25,259.6C134.59,259.59 134.92,259.58 135.26,259.56C135.59,259.55 135.93,259.52 136.26,259.51C136.6,259.5 136.93,259.48 137.27,259.48C137.61,259.48 137.94,259.48 138.28,259.48C138.62,259.48 138.95,259.48 139.29,259.49C139.63,259.5 139.96,259.51 140.3,259.52C140.64,259.53 140.97,259.55 141.31,259.57C141.65,259.58 141.98,259.6 142.32,259.61C142.66,259.62 142.99,259.63 143.33,259.64C143.67,259.65 144,259.66 144.34,259.67C144.68,259.68 145.01,259.68 145.35,259.68C145.69,259.68 146.02,259.69 146.36,259.69C146.7,259.69 147.03,259.69 147.37,259.69C147.71,259.69 148.04,259.69 148.38,259.69C148.72,259.69 149.05,259.69 149.39,259.69C149.72,259.69 150.06,259.69 150.39,259.69C150.73,259.69 151.06,259.69 151.4,259.69C151.74,259.69 152.07,259.69 152.41,259.69C152.75,259.69 153.08,259.69 153.42,259.69C153.76,259.69 154.09,259.68 154.43,259.68C154.77,259.68 155.1,259.67 155.44,259.67C155.78,259.67 156.11,259.66 156.45,259.66C156.79,259.66 157.12,259.65 157.46,259.65C157.8,259.65 158.13,259.64 158.47,259.64C158.81,259.64 159.14,259.64 159.48,259.64C159.82,259.64 160.15,259.64 160.49,259.64C160.83,259.64 161.16,259.65 161.5,259.65C161.84,259.65 162.17,259.66 162.51,259.66C162.85,259.66 163.18,259.67 163.52,259.67C163.85,259.67 164.19,259.68 164.52,259.68C164.86,259.68 165.19,259.68 165.53,259.68C165.87,259.68 166.2,259.69 166.54,259.69C166.88,259.69 167.21,259.69 167.55,259.69C167.89,259.69 168.22,259.69 168.56,259.69C168.9,259.69 169.23,259.69 169.57,259.69C169.91,259.69 170.24,259.69 170.58,259.69C170.92,259.69 171.25,259.69 171.59,259.69C171.93,259.69 172.26,259.69 172.6,259.69C172.94,259.69 173.27,259.69 173.61,259.69C173.95,259.69 174.28,259.69 174.62,259.69C174.96,259.69 175.29,259.68 175.63,259.68C175.97,259.68 176.3,259.68 176.64,259.68C176.98,259.68 177.31,259.67 177.65,259.67C177.98,259.67 178.32,259.66 178.65,259.66C178.99,259.66 179.32,259.65 179.66,259.65C180,259.65 180.33,259.64 180.67,259.64C181.01,259.64 181.34,259.64 181.68,259.64C182.02,259.64 182.35,259.64 182.69,259.64C183.03,259.64 183.36,259.65 183.7,259.65C184.04,259.65 184.37,259.66 184.71,259.66C185.05,259.66 185.38,259.67 185.72,259.67C186.06,259.67 186.39,259.68 186.73,259.68C187.07,259.68 187.4,259.69 187.74,259.69C188.08,259.69 188.41,259.69 188.75,259.69C189.09,259.69 189.42,259.69 189.76,259.69C190.1,259.69 190.43,259.69 190.77,259.69C191.11,259.69 191.44,259.69 191.78,259.69C192.11,259.69 192.45,259.69 192.78,259.69C193.12,259.69 193.45,259.69 193.79,259.69C194.13,259.69 194.46,259.69 194.8,259.69C195.14,259.69 195.47,259.69 195.81,259.69C196.15,259.69 196.48,259.69 196.82,259.69C197.16,259.69 197.49,259.69 197.83,259.69C198.17,259.69 198.5,259.69 198.84,259.69C199.18,259.69 199.51,259.69 199.85,259.69C200.19,259.69 200.52,259.69 200.86,259.69C201.2,259.69 201.53,259.69 201.87,259.69C202.21,259.69 202.54,259.69 202.88,259.69C203.22,259.69 203.55,259.69 203.89,259.69C204.23,259.69 204.56,259.69 204.9,259.69C205.24,259.69 205.57,259.69 205.91,259.69C206.25,259.69 206.58,259.69 206.92,259.69C207.25,259.69 207.59,259.69 207.92,259.69C208.26,259.69 208.59,259.69 208.93,259.69C209.27,259.69 209.6,259.69 209.94,259.69C210.28,259.69 210.61,259.69 210.95,259.69C211.29,259.69 211.62,259.69 211.96,259.69C212.3,259.69 212.63,259.69 212.97,259.69C213.31,259.69 213.64,259.69 213.98,259.69C214.32,259.69 214.65,259.69 214.99,259.69C215.33,259.69 215.66,259.69 216,259.69C216.34,259.69 216.67,259.68 217.01,259.68C217.35,259.68 217.68,259.67 218.02,259.67C218.36,259.67 218.69,259.66 219.03,259.66C219.37,259.65 219.7,259.65 220.04,259.64C220.38,259.63 220.71,259.63 221.05,259.62C221.38,259.61 221.72,259.6 222.05,259.6C222.39,259.59 222.72,259.59 223.06,259.59C223.4,259.59 223.73,259.59 224.07,259.59C224.41,259.59 224.74,259.6 225.08,259.6C225.42,259.61 225.75,259.61 226.09,259.62C226.43,259.62 226.76,259.63 227.1,259.63C227.44,259.64 227.77,259.64 228.11,259.65C228.45,259.66 228.78,259.66 229.12,259.67C229.46,259.67 229.79,259.68 230.13,259.68C230.47,259.68 230.8,259.69 231.14,259.69C231.48,259.69 231.81,259.69 232.15,259.69C232.49,259.69 232.82,259.69 233.16,259.69C233.5,259.69 233.83,259.69 234.17,259.69C234.51,259.69 234.84,259.69 235.18,259.69C235.51,259.69 235.85,259.69 236.18,259.69C236.52,259.69 236.85,259.69 237.19,259.69C237.53,259.69 237.86,259.69 238.2,259.69C238.54,259.69 238.87,259.68 239.21,259.68C239.55,259.67 239.88,259.67 240.22,259.66C240.56,259.65 240.89,259.65 241.23,259.64C241.57,259.63 241.9,259.62 242.24,259.61C242.58,259.6 242.91,259.58 243.25,259.56C243.59,259.55 243.92,259.53 244.26,259.52C244.6,259.51 244.93,259.5 245.27,259.49C245.61,259.48 245.94,259.48 246.28,259.48C246.62,259.48 246.95,259.48 247.29,259.49C247.63,259.5 247.96,259.51 248.3,259.52C248.64,259.53 248.97,259.55 249.31,259.56C249.64,259.57 249.98,259.59 250.31,259.6C250.65,259.61 250.98,259.63 251.32,259.64C251.66,259.65 251.99,259.65 252.33,259.66C252.67,259.67 253,259.67 253.34,259.68C253.68,259.68 254.01,259.69 254.35,259.69C254.69,259.69 255.02,259.69 255.36,259.69C255.7,259.69 256.03,259.69 256.37,259.69C256.71,259.69 257.04,259.69 257.38,259.69C257.72,259.69 258.05,259.69 258.39,259.69C258.73,259.69 259.06,259.69 259.4,259.69C259.74,259.69 260.07,259.69 260.41,259.69C260.75,259.69 261.08,259.69 261.42,259.69C261.76,259.69 262.09,259.69 262.43,259.69C262.77,259.69 263.1,259.69 263.44,259.69C263.77,259.69 264.11,259.69 264.44,259.69C264.78,259.69 265.11,259.69 265.45,259.69C265.79,259.69 266.12,259.69 266.46,259.69C266.8,259.69 267.13,259.69 267.47,259.69C267.81,259.69 268.14,259.69 268.48,259.69C268.82,259.69 269.15,259.69 269.49,259.69C269.83,259.69 270.16,259.69 270.5,259.69C270.84,259.69 271.17,259.68 271.51,259.68C271.85,259.68 272.18,259.67 272.52,259.67C272.86,259.67 273.19,259.66 273.53,259.66C273.87,259.66 274.2,259.65 274.54,259.65C274.88,259.65 275.21,259.64 275.55,259.64C275.89,259.64 276.22,259.64 276.56,259.64C276.9,259.64 277.23,259.64 277.57,259.64C277.9,259.64 278.24,259.65 278.57,259.65C278.91,259.65 279.24,259.66 279.58,259.66C279.92,259.66 280.25,259.67 280.59,259.67C280.93,259.67 281.26,259.68 281.6,259.68C281.94,259.68 282.27,259.68 282.61,259.68C282.95,259.68 283.28,259.68 283.62,259.68C283.96,259.68 284.29,259.68 284.63,259.68C284.97,259.68 285.3,259.67 285.64,259.67C285.98,259.67 286.31,259.66 286.65,259.66C286.99,259.66 287.32,259.65 287.66,259.65C288,259.65 288.33,259.64 288.67,259.64C289.01,259.64 289.34,259.64 289.68,259.64C290.02,259.64 290.35,259.64 290.69,259.64C291.03,259.64 291.36,259.65 291.7,259.65C292.04,259.65 292.37,259.66 292.71,259.66C293.04,259.66 293.38,259.67 293.71,259.67C294.05,259.67 294.38,259.68 294.72,259.68C295.06,259.68 295.39,259.68 295.73,259.68C296.07,259.68 296.4,259.69 296.74,259.69C297.08,259.69 297.41,259.69 297.75,259.69C298.09,259.69 298.42,259.69 298.76,259.69C299.1,259.69 299.43,259.69 299.77,259.69C300.11,259.69 300.44,259.69 300.78,259.69C301.12,259.69 301.45,259.69 301.79,259.69C302.13,259.69 302.46,259.69 302.8,259.69C303.14,259.69 303.47,259.69 303.81,259.69C304.15,259.69 304.48,259.69 304.82,259.69C305.16,259.69 305.49,259.68 305.83,259.68C306.17,259.68 306.5,259.68 306.84,259.68C307.17,259.68 307.51,259.67 307.84,259.67C308.18,259.66 308.51,259.66 308.85,259.65C309.19,259.65 309.52,259.64 309.86,259.64C310.2,259.64 310.53,259.64 310.87,259.64C311.21,259.64 311.54,259.64 311.88,259.64C312.22,259.64 312.55,259.64 312.89,259.64C313.23,259.64 313.56,259.65 313.9,259.65C314.24,259.65 314.57,259.66 314.91,259.66C315.25,259.66 315.58,259.67 315.92,259.67C316.26,259.67 316.59,259.68 316.93,259.68C317.27,259.68 317.6,259.69 317.94,259.69C318.28,259.69 318.61,259.69 318.95,259.69C319.29,259.69 319.62,259.69 319.96,259.69C320.3,259.69 320.63,259.69 320.97,259.69C321.3,259.69 321.64,259.69 321.97,259.69C322.31,259.69 322.64,259.69 322.98,259.69C323.32,259.69 323.65,259.69 323.99,259.69C324.33,259.69 324.66,259.69 325,259.69C325.34,259.69 325.67,259.69 326.01,259.69C326.35,259.69 326.68,259.68 327.02,259.68C327.36,259.68 327.69,259.67 328.03,259.67C328.37,259.66 328.7,259.66 329.04,259.65C329.38,259.64 329.71,259.64 330.05,259.63C330.39,259.62 330.72,259.62 331.06,259.61C331.4,259.6 331.73,259.6 332.07,259.59C332.41,259.59 332.74,259.58 333.08,259.58C333.42,259.58 333.75,259.59 334.09,259.59C334.43,259.6 334.76,259.6 335.1,259.61C335.43,259.62 335.77,259.62 336.1,259.63C336.44,259.64 336.77,259.64 337.11,259.65C337.45,259.66 337.78,259.66 338.12,259.67Q338.46,259.67 339.13,259.68L339.13,259.69" style="vector-effect: non-scaling-stroke; stroke-width: 2px; stroke: rgb(239, 85, 59); stroke-opacity: 1; fill: rgb(239, 85, 59); fill-opacity: 0.5;"/><path class="meanline" d="M45.15,225.77830505371094V259.69" style="fill: none; vector-effect: non-scaling-stroke; stroke-width: 2px; stroke-dasharray: 4px, 2px; stroke: rgb(239, 85, 59); stroke-opacity: 1;"/></g><g class="trace violins" style="opacity: 1;"><path class="violin" d="M24.41,215.38L24.41,215.14Q25.06,214.97 25.38,214.82C25.72,214.66 26.05,214.46 26.36,214.2C26.71,213.9 27.04,213.52 27.34,213.08C27.7,212.55 28.02,211.91 28.32,211.21C28.68,210.37 28.99,209.38 29.29,208.33C29.65,207.08 29.96,205.67 30.27,204.19C30.62,202.49 30.94,200.62 31.25,198.68C31.59,196.53 31.91,194.21 32.22,191.85C32.56,189.32 32.88,186.64 33.2,183.96C33.53,181.19 33.85,178.31 34.18,175.5C34.51,172.7 34.83,169.84 35.16,167.13C35.48,164.56 35.78,161.98 36.13,159.63C36.44,157.54 36.74,155.46 37.11,153.73C37.41,152.35 37.65,150.9 38.09,150.06C38.37,149.53 38.75,148.9 39.07,148.92C39.41,148.94 39.76,149.72 40.04,150.32C40.46,151.21 40.72,152.59 41.02,153.9C41.38,155.46 41.69,157.28 42,159.07C42.34,161.01 42.65,163.1 42.97,165.14C43.3,167.21 43.62,169.35 43.95,171.39C44.27,173.36 44.59,175.35 44.93,177.2C45.24,178.91 45.56,180.58 45.91,182.1C46.22,183.44 46.52,184.72 46.88,185.84C47.18,186.78 47.5,187.65 47.86,188.4C48.16,189.02 48.49,189.56 48.84,190.05C49.15,190.49 49.5,190.83 49.82,191.23C50.15,191.64 50.48,192.02 50.79,192.48C51.13,192.99 51.46,193.56 51.77,194.18C52.12,194.87 52.44,195.66 52.75,196.45C53.09,197.3 53.4,198.23 53.72,199.13C54.05,200.03 54.36,200.97 54.7,201.85C55.02,202.68 55.34,203.52 55.68,204.27C55.99,204.95 56.31,205.6 56.66,206.17C56.97,206.67 57.28,207.13 57.63,207.5C57.94,207.82 58.27,208.09 58.61,208.29C58.92,208.47 59.26,208.58 59.59,208.67C59.91,208.76 60.24,208.78 60.57,208.82C60.89,208.86 61.22,208.86 61.54,208.91C61.87,208.96 62.2,209.01 62.52,209.11C62.85,209.21 63.18,209.35 63.5,209.51C63.83,209.68 64.15,209.9 64.47,210.11C64.8,210.33 65.12,210.58 65.45,210.81C65.78,211.04 66.1,211.28 66.43,211.49C66.75,211.69 67.08,211.88 67.41,212.03C67.73,212.17 68.05,212.29 68.38,212.35C68.7,212.41 69.03,212.42 69.36,212.42C69.69,212.42 70.01,212.37 70.34,212.32C70.67,212.27 70.99,212.19 71.32,212.14C71.64,212.09 71.97,212.04 72.29,212.04C72.62,212.04 72.95,212.06 73.27,212.13C73.6,212.2 73.93,212.32 74.25,212.45C74.58,212.59 74.9,212.78 75.22,212.95C75.55,213.12 75.87,213.32 76.2,213.49C76.52,213.66 76.85,213.84 77.18,213.97C77.5,214.1 77.83,214.21 78.16,214.28C78.48,214.35 78.81,214.39 79.13,214.4C79.46,214.41 79.78,214.38 80.11,214.36C80.44,214.33 80.76,214.29 81.09,214.25C81.42,214.21 81.74,214.16 82.07,214.13C82.39,214.1 82.72,214.08 83.04,214.08C83.37,214.08 83.69,214.11 84.02,214.14C84.35,214.17 84.68,214.22 85,214.28C85.33,214.34 85.65,214.42 85.97,214.49C86.3,214.56 86.62,214.64 86.95,214.7C87.28,214.76 87.6,214.83 87.93,214.87C88.26,214.91 88.58,214.95 88.91,214.96C89.23,214.97 89.56,214.97 89.88,214.96C90.21,214.95 90.53,214.91 90.86,214.87C91.19,214.83 91.51,214.77 91.84,214.72C92.17,214.67 92.49,214.61 92.82,214.56C93.14,214.51 93.47,214.46 93.79,214.43C94.12,214.4 94.44,214.38 94.77,214.38C95.1,214.38 95.42,214.41 95.75,214.44C96.07,214.47 96.4,214.53 96.72,214.58C97.05,214.64 97.37,214.71 97.7,214.77C98.03,214.83 98.35,214.89 98.68,214.95C99.01,215 99.33,215.06 99.66,215.1C99.98,215.14 100.31,215.18 100.63,215.2C100.96,215.23 101.28,215.24 101.61,215.25C101.94,215.26 102.26,215.27 102.59,215.27C102.92,215.27 103.24,215.26 103.57,215.26C103.89,215.26 104.22,215.25 104.54,215.25C104.87,215.24 105.19,215.24 105.52,215.23C105.85,215.23 106.17,215.22 106.5,215.22C106.83,215.22 107.15,215.22 107.48,215.22C107.8,215.22 108.13,215.23 108.45,215.23C108.78,215.23 109.1,215.24 109.43,215.24C109.76,215.24 110.08,215.23 110.41,215.23C110.73,215.23 111.06,215.23 111.38,215.22C111.71,215.21 112.03,215.2 112.36,215.19C112.69,215.18 113.01,215.16 113.34,215.14C113.67,215.12 113.99,215.11 114.32,215.09C114.64,215.07 114.97,215.05 115.29,215.04C115.62,215.03 115.94,215.03 116.27,215.03C116.6,215.03 116.92,215.04 117.25,215.05C117.58,215.06 117.9,215.07 118.23,215.09C118.55,215.11 118.88,215.14 119.2,215.16C119.53,215.18 119.85,215.21 120.18,215.23C120.51,215.25 120.83,215.26 121.16,215.28C121.48,215.29 121.81,215.31 122.13,215.32C122.46,215.33 122.78,215.34 123.11,215.34C123.44,215.34 123.76,215.34 124.09,215.34C124.42,215.34 124.74,215.34 125.07,215.34C125.39,215.34 125.72,215.33 126.04,215.33C126.37,215.33 126.69,215.32 127.02,215.32C127.35,215.32 127.67,215.32 128,215.32C128.33,215.32 128.65,215.32 128.98,215.32C129.3,215.32 129.63,215.32 129.95,215.32C130.28,215.32 130.6,215.33 130.93,215.33C131.26,215.33 131.58,215.33 131.91,215.32C132.23,215.31 132.56,215.3 132.88,215.29C133.21,215.28 133.53,215.27 133.86,215.25C134.19,215.23 134.51,215.21 134.84,215.19C135.17,215.17 135.49,215.14 135.82,215.12C136.14,215.1 136.47,215.08 136.79,215.06C137.12,215.04 137.44,215.02 137.77,215.02C138.1,215.02 138.42,215.02 138.75,215.03C139.08,215.04 139.4,215.05 139.73,215.07C140.05,215.09 140.38,215.11 140.7,215.13C141.03,215.15 141.35,215.18 141.68,215.2C142.01,215.22 142.33,215.24 142.66,215.26C142.98,215.28 143.31,215.3 143.63,215.31C143.96,215.32 144.28,215.33 144.61,215.34C144.94,215.35 145.26,215.35 145.59,215.35C145.92,215.35 146.24,215.36 146.57,215.36C146.89,215.36 147.22,215.36 147.54,215.36C147.87,215.36 148.19,215.36 148.52,215.36C148.85,215.36 149.17,215.37 149.5,215.37C149.83,215.37 150.15,215.37 150.48,215.37C150.8,215.37 151.13,215.38 151.45,215.38C151.78,215.38 152.1,215.38 152.43,215.38C152.76,215.38 153.08,215.37 153.41,215.37C153.73,215.37 154.06,215.36 154.38,215.36C154.71,215.36 155.03,215.35 155.36,215.35C155.69,215.34 156.01,215.34 156.34,215.33C156.67,215.32 156.99,215.32 157.32,215.31C157.64,215.3 157.97,215.3 158.29,215.29C158.62,215.28 158.94,215.27 159.27,215.27C159.6,215.27 159.92,215.27 160.25,215.27C160.58,215.27 160.9,215.27 161.23,215.28C161.55,215.28 161.88,215.29 162.2,215.3C162.53,215.31 162.85,215.32 163.18,215.33C163.51,215.34 163.83,215.34 164.16,215.35C164.48,215.35 164.81,215.36 165.13,215.36C165.46,215.36 165.78,215.37 166.11,215.37C166.44,215.37 166.76,215.38 167.09,215.38C167.42,215.38 167.74,215.38 168.07,215.38C168.39,215.38 168.72,215.38 169.04,215.38C169.37,215.38 169.69,215.38 170.02,215.38C170.35,215.38 170.67,215.38 171,215.38C171.33,215.38 171.65,215.38 171.98,215.38C172.3,215.38 172.63,215.38 172.95,215.38C173.28,215.38 173.6,215.38 173.93,215.38C174.26,215.38 174.58,215.38 174.91,215.38C175.23,215.38 175.56,215.38 175.88,215.38C176.21,215.38 176.53,215.38 176.86,215.38C177.19,215.38 177.51,215.37 177.84,215.37C178.17,215.37 178.49,215.37 178.82,215.37C179.14,215.37 179.47,215.37 179.79,215.37C180.12,215.37 180.44,215.36 180.77,215.36C181.1,215.36 181.42,215.36 181.75,215.36C182.08,215.36 182.4,215.36 182.73,215.36C183.05,215.36 183.38,215.37 183.7,215.37C184.03,215.37 184.35,215.37 184.68,215.37C185.01,215.37 185.33,215.38 185.66,215.38C185.99,215.38 186.31,215.38 186.64,215.38C186.96,215.38 187.29,215.38 187.61,215.38C187.94,215.38 188.26,215.38 188.59,215.38C188.92,215.38 189.24,215.38 189.57,215.38C189.89,215.38 190.22,215.38 190.54,215.38C190.87,215.38 191.19,215.38 191.52,215.38C191.85,215.38 192.17,215.38 192.5,215.38C192.83,215.38 193.15,215.38 193.48,215.38C193.8,215.38 194.13,215.38 194.45,215.38C194.78,215.38 195.1,215.38 195.43,215.38C195.76,215.38 196.08,215.38 196.41,215.38C196.74,215.38 197.06,215.38 197.39,215.38C197.71,215.38 198.04,215.38 198.36,215.38C198.69,215.38 199.01,215.37 199.34,215.37C199.67,215.37 199.99,215.37 200.32,215.37C200.64,215.37 200.97,215.37 201.29,215.37C201.62,215.37 201.94,215.36 202.27,215.36C202.6,215.36 202.92,215.36 203.25,215.36C203.58,215.36 203.9,215.36 204.23,215.36C204.55,215.36 204.88,215.37 205.2,215.37C205.53,215.37 205.85,215.37 206.18,215.37C206.51,215.37 206.83,215.37 207.16,215.37C207.49,215.37 207.81,215.38 208.14,215.38C208.46,215.38 208.79,215.38 209.11,215.38C209.44,215.38 209.76,215.37 210.09,215.37C210.42,215.37 210.74,215.37 211.07,215.37C211.39,215.37 211.72,215.37 212.04,215.37C212.37,215.37 212.69,215.36 213.02,215.36C213.35,215.36 213.67,215.36 214,215.36C214.33,215.36 214.65,215.36 214.98,215.36C215.3,215.36 215.63,215.37 215.95,215.37C216.28,215.37 216.6,215.37 216.93,215.37C217.26,215.37 217.58,215.38 217.91,215.38C218.24,215.38 218.56,215.38 218.89,215.38C219.21,215.38 219.54,215.38 219.86,215.38C220.19,215.38 220.51,215.38 220.84,215.38C221.17,215.38 221.49,215.38 221.82,215.38C222.14,215.38 222.47,215.38 222.79,215.38C223.12,215.38 223.44,215.38 223.77,215.38C224.1,215.38 224.42,215.38 224.75,215.38C225.08,215.38 225.4,215.38 225.73,215.38C226.05,215.38 226.38,215.38 226.7,215.38C227.03,215.38 227.35,215.38 227.68,215.38C228.01,215.38 228.33,215.38 228.66,215.38C228.99,215.38 229.31,215.38 229.64,215.38C229.96,215.38 230.29,215.38 230.61,215.38C230.94,215.38 231.26,215.38 231.59,215.38C231.92,215.38 232.24,215.38 232.57,215.38C232.89,215.38 233.22,215.38 233.54,215.38C233.87,215.38 234.19,215.37 234.52,215.37C234.85,215.37 235.17,215.37 235.5,215.37C235.83,215.37 236.15,215.36 236.48,215.36C236.8,215.36 237.13,215.36 237.45,215.36C237.78,215.36 238.1,215.36 238.43,215.36C238.76,215.36 239.08,215.35 239.41,215.35C239.74,215.35 240.06,215.35 240.39,215.34C240.71,215.34 241.04,215.33 241.36,215.32C241.69,215.31 242.01,215.3 242.34,215.29C242.67,215.28 242.99,215.26 243.32,215.25C243.64,215.24 243.97,215.22 244.29,215.21C244.62,215.2 244.94,215.18 245.27,215.17C245.6,215.16 245.92,215.16 246.25,215.16C246.58,215.16 246.9,215.16 247.23,215.17C247.55,215.18 247.88,215.19 248.2,215.2C248.53,215.21 248.85,215.23 249.18,215.24C249.51,215.25 249.83,215.27 250.16,215.28C250.49,215.29 250.81,215.31 251.14,215.32C251.46,215.33 251.79,215.34 252.11,215.35C252.44,215.36 252.76,215.36 253.09,215.37C253.42,215.37 253.74,215.38 254.07,215.38C254.39,215.38 254.72,215.38 255.04,215.38C255.37,215.38 255.69,215.38 256.02,215.38C256.35,215.38 256.67,215.38 257,215.38C257.33,215.38 257.65,215.38 257.98,215.38C258.3,215.38 258.63,215.38 258.95,215.38C259.28,215.38 259.6,215.38 259.93,215.38C260.26,215.38 260.58,215.38 260.91,215.38C261.24,215.38 261.56,215.38 261.89,215.38C262.21,215.38 262.54,215.38 262.86,215.38C263.19,215.38 263.51,215.38 263.84,215.38C264.17,215.38 264.49,215.37 264.82,215.37C265.15,215.37 265.47,215.37 265.8,215.37C266.12,215.37 266.45,215.36 266.77,215.36C267.1,215.36 267.42,215.36 267.75,215.36C268.08,215.36 268.4,215.36 268.73,215.36C269.05,215.36 269.38,215.36 269.7,215.36C270.03,215.36 270.35,215.37 270.68,215.37C271.01,215.37 271.33,215.37 271.66,215.37C271.99,215.37 272.31,215.37 272.64,215.37C272.96,215.37 273.29,215.37 273.61,215.37C273.94,215.37 274.26,215.37 274.59,215.37C274.92,215.37 275.24,215.36 275.57,215.36C275.9,215.36 276.22,215.36 276.55,215.36C276.87,215.36 277.2,215.36 277.52,215.36C277.85,215.36 278.17,215.37 278.5,215.37C278.83,215.37 279.15,215.37 279.48,215.37C279.8,215.37 280.13,215.37 280.45,215.37C280.78,215.37 281.1,215.38 281.43,215.38C281.76,215.38 282.08,215.38 282.41,215.38C282.74,215.38 283.06,215.38 283.39,215.38C283.71,215.38 284.04,215.38 284.36,215.38C284.69,215.38 285.01,215.38 285.34,215.38C285.67,215.38 285.99,215.38 286.32,215.38C286.65,215.38 286.97,215.38 287.3,215.38C287.62,215.38 287.95,215.38 288.27,215.38C288.6,215.38 288.92,215.38 289.25,215.38C289.58,215.38 289.9,215.38 290.23,215.38C290.55,215.38 290.88,215.38 291.2,215.38C291.53,215.38 291.85,215.38 292.18,215.38C292.51,215.38 292.83,215.38 293.16,215.38C293.49,215.38 293.81,215.38 294.14,215.38C294.46,215.38 294.79,215.38 295.11,215.38C295.44,215.38 295.76,215.38 296.09,215.38C296.42,215.38 296.74,215.38 297.07,215.38C297.4,215.38 297.72,215.38 298.05,215.38C298.37,215.38 298.7,215.38 299.02,215.38C299.35,215.38 299.67,215.38 300,215.38C300.33,215.38 300.65,215.38 300.98,215.38C301.3,215.38 301.63,215.38 301.95,215.38C302.28,215.38 302.6,215.38 302.93,215.38C303.26,215.38 303.58,215.38 303.91,215.38C304.24,215.38 304.56,215.38 304.89,215.38C305.21,215.38 305.54,215.38 305.86,215.38C306.19,215.38 306.51,215.38 306.84,215.38C307.17,215.38 307.49,215.38 307.82,215.38C308.15,215.38 308.47,215.38 308.8,215.38C309.12,215.38 309.45,215.38 309.77,215.38C310.1,215.38 310.42,215.38 310.75,215.38C311.08,215.38 311.4,215.38 311.73,215.38C312.05,215.38 312.38,215.38 312.7,215.38C313.03,215.38 313.35,215.38 313.68,215.38C314.01,215.38 314.33,215.38 314.66,215.38C314.99,215.38 315.31,215.38 315.64,215.38C315.96,215.38 316.29,215.38 316.61,215.38C316.94,215.38 317.26,215.38 317.59,215.38C317.92,215.38 318.24,215.38 318.57,215.38C318.9,215.38 319.22,215.38 319.55,215.38C319.87,215.38 320.2,215.38 320.52,215.38C320.85,215.38 321.17,215.37 321.5,215.37C321.83,215.37 322.15,215.37 322.48,215.37C322.8,215.37 323.13,215.36 323.45,215.36C323.78,215.36 324.1,215.36 324.43,215.36C324.76,215.36 325.08,215.36 325.41,215.36C325.74,215.36 326.06,215.37 326.39,215.37C326.71,215.37 327.04,215.37 327.36,215.37C327.69,215.37 328.01,215.38 328.34,215.38C328.67,215.38 328.99,215.38 329.32,215.38Q329.65,215.38 330.3,215.38L330.3,215.38" style="vector-effect: non-scaling-stroke; stroke-width: 2px; stroke: rgb(0, 204, 150); stroke-opacity: 1; fill: rgb(0, 204, 150); fill-opacity: 0.5;"/><path class="meanline" d="M45.26,178.97952270507812V215.38" style="fill: none; vector-effect: non-scaling-stroke; stroke-width: 2px; stroke-dasharray: 4px, 2px; stroke: rgb(0, 204, 150); stroke-opacity: 1;"/></g><g class="trace violins" style="opacity: 1;"><path class="violin" d="M22.5,171.08L22.5,170.73Q23.38,170.49 23.8,170.27C24.25,170.04 24.69,169.74 25.1,169.35C25.57,168.9 25.99,168.33 26.39,167.68C26.87,166.89 27.29,165.92 27.69,164.87C28.17,163.6 28.59,162.13 28.99,160.56C29.46,158.72 29.88,156.65 30.29,154.5C30.75,152.07 31.17,149.4 31.59,146.69C32.04,143.76 32.45,140.62 32.88,137.52C33.32,134.32 33.74,130.98 34.18,127.77C34.61,124.65 35.02,121.45 35.48,118.53C35.89,115.89 36.29,113.22 36.78,111C37.18,109.2 37.5,107.3 38.08,106.18C38.45,105.46 38.95,104.61 39.38,104.62C39.82,104.63 40.29,105.55 40.67,106.28C41.22,107.34 41.56,109.02 41.97,110.57C42.44,112.38 42.85,114.49 43.27,116.51C43.71,118.62 44.13,120.86 44.57,122.99C45,125.06 45.42,127.15 45.87,129.1C46.29,130.91 46.7,132.67 47.16,134.31C47.57,135.8 48.01,137.2 48.46,138.53C48.88,139.75 49.32,140.89 49.76,142.02C50.18,143.11 50.63,144.13 51.06,145.19C51.49,146.24 51.93,147.29 52.36,148.35C52.79,149.42 53.22,150.5 53.65,151.57C54.08,152.63 54.51,153.71 54.95,154.72C55.37,155.69 55.8,156.65 56.25,157.52C56.67,158.32 57.09,159.1 57.55,159.78C57.96,160.39 58.39,160.96 58.85,161.44C59.26,161.88 59.7,162.25 60.14,162.58C60.56,162.9 61,163.15 61.44,163.41C61.87,163.66 62.31,163.88 62.74,164.11C63.17,164.34 63.61,164.56 64.04,164.79C64.47,165.02 64.91,165.26 65.34,165.48C65.77,165.7 66.19,165.92 66.63,166.1C67.06,166.28 67.49,166.45 67.93,166.58C68.36,166.71 68.8,166.79 69.23,166.87C69.66,166.95 70.1,166.99 70.53,167.05C70.96,167.11 71.4,167.15 71.83,167.22C72.26,167.29 72.7,167.36 73.13,167.47C73.56,167.58 73.99,167.73 74.42,167.88C74.86,168.03 75.29,168.22 75.72,168.39C76.15,168.56 76.58,168.75 77.02,168.91C77.45,169.07 77.88,169.23 78.32,169.35C78.75,169.47 79.19,169.57 79.62,169.65C80.05,169.73 80.48,169.77 80.91,169.81C81.34,169.85 81.78,169.87 82.21,169.89C82.64,169.91 83.08,169.93 83.51,169.95C83.94,169.98 84.38,170.01 84.81,170.04C85.24,170.07 85.68,170.11 86.11,170.15C86.54,170.18 86.97,170.22 87.4,170.25C87.83,170.28 88.27,170.3 88.7,170.31C89.13,170.32 89.57,170.31 90,170.29C90.43,170.27 90.87,170.24 91.3,170.21C91.73,170.18 92.17,170.14 92.6,170.11C93.03,170.08 93.46,170.05 93.89,170.04C94.32,170.03 94.76,170.03 95.19,170.05C95.62,170.07 96.06,170.11 96.49,170.15C96.92,170.19 97.36,170.25 97.79,170.31C98.22,170.37 98.66,170.44 99.09,170.5C99.52,170.56 99.95,170.62 100.38,170.67C100.81,170.72 101.25,170.77 101.68,170.8C102.11,170.83 102.55,170.85 102.98,170.87C103.41,170.89 103.85,170.9 104.28,170.91C104.71,170.92 105.15,170.92 105.58,170.92C106.01,170.92 106.45,170.92 106.88,170.91C107.31,170.91 107.74,170.9 108.17,170.89C108.6,170.88 109.04,170.88 109.47,170.87C109.9,170.86 110.34,170.84 110.77,170.82C111.2,170.8 111.64,170.78 112.07,170.76C112.5,170.74 112.94,170.71 113.37,170.69C113.8,170.67 114.23,170.64 114.66,170.63C115.09,170.62 115.53,170.61 115.96,170.61C116.39,170.61 116.83,170.61 117.26,170.62C117.69,170.63 118.13,170.66 118.56,170.68C118.99,170.71 119.43,170.74 119.86,170.77C120.29,170.8 120.72,170.83 121.15,170.86C121.58,170.89 122.02,170.92 122.45,170.94C122.88,170.96 123.32,170.98 123.75,171C124.18,171.02 124.62,171.03 125.05,171.04C125.48,171.05 125.92,171.06 126.35,171.06C126.78,171.06 127.21,171.06 127.64,171.06C128.07,171.06 128.51,171.05 128.94,171.05C129.37,171.05 129.81,171.05 130.24,171.04C130.67,171.03 131.11,171.01 131.54,171C131.97,170.98 132.41,170.97 132.84,170.95C133.27,170.93 133.7,170.91 134.13,170.89C134.56,170.87 135,170.85 135.43,170.83C135.86,170.81 136.3,170.79 136.73,170.78C137.16,170.77 137.6,170.76 138.03,170.76C138.46,170.76 138.9,170.76 139.33,170.77C139.76,170.78 140.2,170.79 140.63,170.81C141.06,170.83 141.49,170.85 141.92,170.87C142.35,170.89 142.79,170.9 143.22,170.92C143.65,170.94 144.09,170.95 144.52,170.97C144.95,170.98 145.39,171 145.82,171.01C146.25,171.02 146.69,171.02 147.12,171.03C147.55,171.03 147.98,171.04 148.41,171.04C148.84,171.04 149.28,171.05 149.71,171.05C150.14,171.05 150.58,171.05 151.01,171.05C151.44,171.05 151.88,171.04 152.31,171.04C152.74,171.03 153.18,171.03 153.61,171.02C154.04,171.01 154.47,171.01 154.9,171C155.33,170.99 155.77,170.97 156.2,170.96C156.63,170.95 157.07,170.94 157.5,170.93C157.93,170.92 158.37,170.91 158.8,170.91C159.23,170.91 159.67,170.91 160.1,170.91C160.53,170.91 160.96,170.91 161.39,170.92C161.82,170.93 162.26,170.94 162.69,170.95C163.12,170.96 163.56,170.97 163.99,170.98C164.42,170.99 164.86,171 165.29,171.01C165.72,171.02 166.16,171.03 166.59,171.04C167.02,171.05 167.45,171.06 167.88,171.06C168.31,171.07 168.75,171.07 169.18,171.07C169.61,171.07 170.05,171.07 170.48,171.07C170.91,171.07 171.35,171.07 171.78,171.07C172.21,171.07 172.65,171.07 173.08,171.07C173.51,171.07 173.95,171.07 174.38,171.07C174.81,171.07 175.24,171.07 175.67,171.07C176.1,171.07 176.54,171.06 176.97,171.06C177.4,171.06 177.84,171.06 178.27,171.06C178.7,171.06 179.14,171.06 179.57,171.06C180,171.06 180.44,171.05 180.87,171.05C181.3,171.05 181.73,171.05 182.16,171.05C182.59,171.05 183.03,171.06 183.46,171.06C183.89,171.06 184.33,171.06 184.76,171.06C185.19,171.06 185.63,171.06 186.06,171.06C186.49,171.06 186.93,171.07 187.36,171.07C187.79,171.07 188.22,171.07 188.65,171.07C189.08,171.07 189.52,171.07 189.95,171.07C190.38,171.07 190.82,171.08 191.25,171.08C191.68,171.08 192.12,171.08 192.55,171.08C192.98,171.08 193.42,171.08 193.85,171.08C194.28,171.08 194.71,171.08 195.14,171.08C195.57,171.08 196.01,171.08 196.44,171.08C196.87,171.08 197.31,171.08 197.74,171.08C198.17,171.08 198.61,171.08 199.04,171.08C199.47,171.08 199.91,171.08 200.34,171.08C200.77,171.08 201.2,171.08 201.63,171.08C202.06,171.08 202.5,171.08 202.93,171.08C203.36,171.08 203.8,171.08 204.23,171.08C204.66,171.08 205.1,171.07 205.53,171.07C205.96,171.07 206.4,171.07 206.83,171.07C207.26,171.07 207.7,171.07 208.13,171.07C208.56,171.07 208.99,171.06 209.42,171.06C209.85,171.06 210.29,171.06 210.72,171.06C211.15,171.06 211.59,171.05 212.02,171.05C212.45,171.05 212.89,171.05 213.32,171.05C213.75,171.05 214.19,171.05 214.62,171.05C215.05,171.05 215.48,171.05 215.91,171.05C216.34,171.05 216.78,171.05 217.21,171.05C217.64,171.05 218.08,171.04 218.51,171.04C218.94,171.04 219.38,171.04 219.81,171.04C220.24,171.04 220.68,171.03 221.11,171.03C221.54,171.03 221.97,171.03 222.4,171.03C222.83,171.03 223.27,171.03 223.7,171.03C224.13,171.03 224.57,171.03 225,171.03C225.43,171.03 225.87,171.04 226.3,171.04C226.73,171.04 227.17,171.05 227.6,171.05C228.03,171.05 228.46,171.06 228.89,171.06C229.32,171.06 229.76,171.06 230.19,171.06C230.62,171.06 231.06,171.07 231.49,171.07C231.92,171.07 232.36,171.07 232.79,171.07C233.22,171.07 233.66,171.07 234.09,171.07C234.52,171.07 234.95,171.07 235.38,171.07C235.81,171.07 236.25,171.07 236.68,171.07C237.11,171.07 237.55,171.06 237.98,171.05C238.41,171.04 238.85,171.04 239.28,171.03C239.71,171.02 240.15,171.01 240.58,171C241.01,170.99 241.45,170.97 241.88,170.95C242.31,170.94 242.74,170.92 243.17,170.91C243.6,170.89 244.04,170.87 244.47,170.86C244.9,170.85 245.34,170.84 245.77,170.84C246.2,170.84 246.64,170.84 247.07,170.84C247.5,170.84 247.94,170.85 248.37,170.86C248.8,170.87 249.23,170.89 249.66,170.9C250.09,170.92 250.53,170.93 250.96,170.95C251.39,170.97 251.83,170.99 252.26,171C252.69,171.01 253.13,171.02 253.56,171.03C253.99,171.04 254.43,171.04 254.86,171.05C255.29,171.06 255.72,171.07 256.15,171.07C256.58,171.07 257.02,171.07 257.45,171.07C257.88,171.07 258.32,171.07 258.75,171.07C259.18,171.07 259.62,171.07 260.05,171.07C260.48,171.07 260.92,171.07 261.35,171.07C261.78,171.07 262.21,171.07 262.64,171.07C263.07,171.07 263.51,171.06 263.94,171.06C264.37,171.06 264.81,171.06 265.24,171.06C265.67,171.06 266.11,171.05 266.54,171.05C266.97,171.05 267.41,171.05 267.84,171.05C268.27,171.05 268.7,171.05 269.13,171.05C269.56,171.05 270,171.05 270.43,171.05C270.86,171.05 271.3,171.05 271.73,171.05C272.16,171.05 272.6,171.05 273.03,171.05C273.46,171.05 273.9,171.05 274.33,171.05C274.76,171.05 275.2,171.05 275.63,171.05C276.06,171.05 276.49,171.05 276.92,171.05C277.35,171.05 277.79,171.05 278.22,171.05C278.65,171.05 279.09,171.06 279.52,171.06C279.95,171.06 280.39,171.06 280.82,171.06C281.25,171.06 281.69,171.06 282.12,171.06C282.55,171.06 282.98,171.06 283.41,171.06C283.84,171.06 284.28,171.06 284.71,171.06C285.14,171.06 285.58,171.06 286.01,171.06C286.44,171.06 286.88,171.06 287.31,171.06C287.74,171.06 288.18,171.05 288.61,171.05C289.04,171.05 289.47,171.05 289.9,171.05C290.33,171.05 290.77,171.05 291.2,171.05C291.63,171.05 292.07,171.06 292.5,171.06C292.93,171.06 293.37,171.06 293.8,171.06C294.23,171.06 294.67,171.07 295.1,171.07C295.53,171.07 295.96,171.07 296.39,171.07C296.82,171.07 297.26,171.07 297.69,171.07C298.12,171.07 298.56,171.08 298.99,171.08C299.42,171.08 299.86,171.08 300.29,171.08C300.72,171.08 301.16,171.08 301.59,171.08C302.02,171.08 302.45,171.08 302.88,171.08C303.31,171.08 303.75,171.08 304.18,171.08C304.61,171.08 305.05,171.08 305.48,171.08C305.91,171.08 306.35,171.08 306.78,171.08C307.21,171.08 307.65,171.08 308.08,171.08C308.51,171.08 308.95,171.08 309.38,171.08C309.81,171.08 310.24,171.08 310.67,171.08C311.1,171.08 311.54,171.08 311.97,171.08C312.4,171.08 312.84,171.08 313.27,171.08C313.7,171.08 314.14,171.08 314.57,171.08C315,171.08 315.44,171.08 315.87,171.08C316.3,171.08 316.73,171.08 317.16,171.08C317.59,171.08 318.03,171.08 318.46,171.08C318.89,171.08 319.33,171.08 319.76,171.08C320.19,171.08 320.63,171.08 321.06,171.08C321.49,171.08 321.93,171.08 322.36,171.08C322.79,171.08 323.22,171.07 323.65,171.07C324.08,171.07 324.52,171.07 324.95,171.07C325.38,171.07 325.82,171.07 326.25,171.07C326.68,171.07 327.12,171.06 327.55,171.06C327.98,171.06 328.42,171.05 328.85,171.05C329.28,171.05 329.71,171.04 330.14,171.04C330.57,171.04 331.01,171.03 331.44,171.03C331.87,171.03 332.31,171.03 332.74,171.03C333.17,171.03 333.61,171.03 334.04,171.03C334.47,171.03 334.91,171.04 335.34,171.04C335.77,171.04 336.2,171.04 336.63,171.04C337.06,171.04 337.5,171.05 337.93,171.05C338.36,171.05 338.8,171.06 339.23,171.06C339.66,171.06 340.1,171.07 340.53,171.07C340.96,171.07 341.4,171.07 341.83,171.07C342.26,171.07 342.7,171.08 343.13,171.08C343.56,171.08 343.99,171.08 344.42,171.08C344.85,171.08 345.29,171.08 345.72,171.08C346.15,171.08 346.59,171.08 347.02,171.08C347.45,171.08 347.89,171.08 348.32,171.08C348.75,171.08 349.19,171.08 349.62,171.08C350.05,171.08 350.48,171.08 350.91,171.08C351.34,171.08 351.78,171.08 352.21,171.08C352.64,171.08 353.08,171.08 353.51,171.08C353.94,171.08 354.38,171.08 354.81,171.08C355.24,171.08 355.68,171.08 356.11,171.08C356.54,171.08 356.97,171.08 357.4,171.08C357.83,171.08 358.27,171.08 358.7,171.08C359.13,171.08 359.57,171.08 360,171.08C360.43,171.08 360.87,171.08 361.3,171.08C361.73,171.08 362.17,171.08 362.6,171.08C363.03,171.08 363.46,171.08 363.89,171.08C364.32,171.08 364.76,171.08 365.19,171.08C365.62,171.08 366.06,171.08 366.49,171.08C366.92,171.08 367.36,171.08 367.79,171.08C368.22,171.08 368.66,171.08 369.09,171.08C369.52,171.08 369.95,171.08 370.38,171.08C370.81,171.08 371.25,171.08 371.68,171.08C372.11,171.08 372.55,171.08 372.98,171.08C373.41,171.08 373.85,171.08 374.28,171.08C374.71,171.08 375.15,171.08 375.58,171.08C376.01,171.08 376.45,171.08 376.88,171.08C377.31,171.08 377.74,171.08 378.17,171.08C378.6,171.08 379.04,171.08 379.47,171.08C379.9,171.08 380.34,171.08 380.77,171.08C381.2,171.08 381.64,171.08 382.07,171.08C382.5,171.08 382.94,171.08 383.37,171.08C383.8,171.08 384.23,171.08 384.66,171.08C385.09,171.08 385.53,171.08 385.96,171.08C386.39,171.08 386.83,171.08 387.26,171.08C387.69,171.08 388.13,171.08 388.56,171.08C388.99,171.08 389.43,171.08 389.86,171.08C390.29,171.08 390.72,171.08 391.15,171.08C391.58,171.08 392.02,171.08 392.45,171.08C392.88,171.08 393.32,171.08 393.75,171.08C394.18,171.08 394.62,171.08 395.05,171.08C395.48,171.08 395.92,171.08 396.35,171.08C396.78,171.08 397.21,171.08 397.64,171.08C398.07,171.08 398.51,171.08 398.94,171.08C399.37,171.08 399.81,171.08 400.24,171.08C400.67,171.08 401.11,171.08 401.54,171.08C401.97,171.08 402.41,171.08 402.84,171.08C403.27,171.08 403.7,171.08 404.13,171.08C404.56,171.08 405,171.08 405.43,171.08C405.86,171.08 406.3,171.08 406.73,171.08C407.16,171.08 407.6,171.08 408.03,171.08C408.46,171.08 408.9,171.08 409.33,171.08C409.76,171.08 410.2,171.08 410.63,171.08C411.06,171.08 411.49,171.07 411.92,171.07C412.35,171.07 412.79,171.07 413.22,171.07C413.65,171.07 414.09,171.07 414.52,171.07C414.95,171.07 415.39,171.06 415.82,171.06C416.25,171.06 416.69,171.06 417.12,171.06C417.55,171.06 417.98,171.05 418.41,171.05C418.84,171.05 419.28,171.05 419.71,171.05C420.14,171.05 420.58,171.05 421.01,171.05C421.44,171.05 421.88,171.06 422.31,171.06C422.74,171.06 423.18,171.06 423.61,171.06C424.04,171.06 424.47,171.07 424.9,171.07C425.33,171.07 425.77,171.07 426.2,171.07Q426.63,171.07 427.5,171.07L427.5,171.08" style="vector-effect: non-scaling-stroke; stroke-width: 2px; stroke: rgb(171, 99, 250); stroke-opacity: 1; fill: rgb(171, 99, 250); fill-opacity: 0.5;"/><path class="meanline" d="M45.98,129.57533264160156V171.08" style="fill: none; vector-effect: non-scaling-stroke; stroke-width: 2px; stroke-dasharray: 4px, 2px; stroke: rgb(171, 99, 250); stroke-opacity: 1;"/></g><g class="trace violins" style="opacity: 1;"><path class="violin" d="M24.23,126.77L24.23,126.49Q24.91,126.3 25.24,126.13C25.59,125.95 25.93,125.72 26.25,125.42C26.61,125.08 26.95,124.64 27.26,124.14C27.63,123.54 27.96,122.81 28.27,122.02C28.64,121.06 28.97,119.96 29.28,118.77C29.65,117.37 29.97,115.8 30.29,114.16C30.65,112.29 30.98,110.25 31.3,108.14C31.65,105.82 31.98,103.34 32.31,100.83C32.66,98.17 32.99,95.38 33.32,92.62C33.66,89.8 33.99,86.89 34.33,84.08C34.66,81.33 34.98,78.54 35.33,75.93C35.65,73.5 35.98,71.07 36.34,68.9C36.66,67.03 36.95,65.16 37.35,63.68C37.65,62.55 37.88,61.27 38.36,60.75C38.65,60.44 39.07,60.21 39.37,60.31C39.79,60.46 40.08,61.47 40.38,62.25C40.79,63.31 41.07,64.76 41.39,66.17C41.75,67.79 42.07,69.63 42.4,71.43C42.75,73.34 43.07,75.36 43.41,77.32C43.75,79.26 44.07,81.25 44.42,83.12C44.75,84.89 45.07,86.65 45.43,88.26C45.75,89.71 46.07,91.11 46.44,92.35C46.75,93.42 47.08,94.43 47.45,95.3C47.76,96.04 48.1,96.68 48.46,97.27C48.78,97.79 49.13,98.2 49.47,98.66C49.8,99.11 50.15,99.52 50.47,100.01C50.82,100.54 51.16,101.11 51.48,101.73C51.84,102.43 52.17,103.22 52.49,104.02C52.84,104.89 53.17,105.85 53.5,106.78C53.84,107.74 54.17,108.74 54.51,109.69C54.84,110.62 55.17,111.56 55.52,112.42C55.84,113.22 56.17,114 56.53,114.69C56.85,115.31 57.18,115.9 57.54,116.39C57.86,116.82 58.19,117.21 58.55,117.52C58.87,117.79 59.21,118 59.56,118.17C59.89,118.33 60.23,118.41 60.57,118.5C60.9,118.59 61.25,118.63 61.58,118.72C61.92,118.81 62.26,118.89 62.59,119.03C62.93,119.17 63.27,119.35 63.6,119.56C63.94,119.77 64.27,120.04 64.6,120.3C64.94,120.57 65.27,120.87 65.61,121.15C65.94,121.42 66.27,121.71 66.62,121.94C66.95,122.16 67.28,122.38 67.63,122.52C67.96,122.66 68.3,122.76 68.64,122.8C68.97,122.84 69.32,122.82 69.65,122.78C69.99,122.74 70.32,122.63 70.66,122.56C71,122.48 71.33,122.38 71.67,122.33C72,122.28 72.35,122.24 72.68,122.27C73.02,122.3 73.36,122.37 73.69,122.49C74.03,122.61 74.37,122.81 74.7,123C75.04,123.2 75.37,123.45 75.71,123.68C76.05,123.91 76.38,124.15 76.72,124.36C77.05,124.56 77.39,124.76 77.73,124.91C78.06,125.05 78.39,125.16 78.73,125.23C79.06,125.3 79.4,125.32 79.74,125.33C80.08,125.34 80.41,125.32 80.75,125.3C81.09,125.28 81.42,125.24 81.76,125.22C82.1,125.2 82.43,125.19 82.77,125.19C83.11,125.19 83.44,125.21 83.78,125.25C84.12,125.29 84.45,125.34 84.79,125.41C85.13,125.48 85.46,125.57 85.8,125.65C86.14,125.73 86.47,125.81 86.81,125.89C87.15,125.96 87.48,126.04 87.82,126.1C88.16,126.15 88.49,126.2 88.83,126.22C89.17,126.24 89.5,126.24 89.84,126.23C90.18,126.22 90.51,126.18 90.85,126.14C91.19,126.09 91.52,126.02 91.86,125.96C92.19,125.9 92.53,125.83 92.86,125.77C93.2,125.71 93.53,125.65 93.87,125.62C94.21,125.59 94.54,125.57 94.88,125.57C95.22,125.57 95.55,125.61 95.89,125.65C96.23,125.69 96.56,125.76 96.9,125.82C97.24,125.89 97.57,125.97 97.91,126.04C98.25,126.11 98.58,126.2 98.92,126.26C99.26,126.32 99.59,126.37 99.93,126.42C100.27,126.46 100.6,126.5 100.94,126.53C101.28,126.55 101.61,126.56 101.95,126.57C102.29,126.58 102.62,126.58 102.96,126.58C103.3,126.58 103.63,126.57 103.97,126.57C104.31,126.57 104.64,126.56 104.98,126.56C105.32,126.56 105.65,126.56 105.99,126.56C106.32,126.56 106.66,126.57 106.99,126.57C107.33,126.58 107.66,126.59 108,126.59C108.34,126.59 108.67,126.59 109.01,126.59C109.35,126.59 109.68,126.59 110.02,126.58C110.36,126.57 110.69,126.55 111.03,126.53C111.37,126.51 111.7,126.48 112.04,126.45C112.38,126.42 112.71,126.38 113.05,126.34C113.39,126.3 113.72,126.25 114.06,126.21C114.4,126.17 114.73,126.13 115.07,126.1C115.41,126.07 115.74,126.06 116.08,126.05C116.42,126.04 116.75,126.04 117.09,126.06C117.43,126.08 117.76,126.11 118.1,126.15C118.44,126.19 118.77,126.24 119.11,126.28C119.45,126.33 119.78,126.38 120.12,126.42C120.45,126.46 120.79,126.51 121.12,126.54C121.46,126.58 121.79,126.6 122.13,126.63C122.47,126.65 122.8,126.68 123.14,126.69C123.48,126.7 123.81,126.7 124.15,126.71C124.49,126.71 124.82,126.72 125.16,126.72C125.5,126.72 125.83,126.72 126.17,126.72C126.51,126.72 126.84,126.72 127.18,126.72C127.52,126.72 127.85,126.72 128.19,126.72C128.53,126.72 128.86,126.72 129.2,126.72C129.54,126.72 129.87,126.73 130.21,126.73C130.55,126.73 130.88,126.73 131.22,126.73C131.56,126.73 131.89,126.72 132.23,126.71C132.57,126.7 132.9,126.7 133.24,126.69C133.58,126.68 133.91,126.66 134.25,126.64C134.59,126.62 134.92,126.61 135.26,126.59C135.59,126.57 135.93,126.55 136.26,126.54C136.6,126.52 136.93,126.51 137.27,126.5C137.61,126.49 137.94,126.49 138.28,126.49C138.62,126.49 138.95,126.5 139.29,126.51C139.63,126.52 139.96,126.53 140.3,126.55C140.64,126.57 140.97,126.59 141.31,126.61C141.65,126.63 141.98,126.64 142.32,126.66C142.66,126.67 142.99,126.69 143.33,126.7C143.67,126.71 144,126.72 144.34,126.73C144.68,126.74 145.01,126.74 145.35,126.75C145.69,126.75 146.02,126.76 146.36,126.76C146.7,126.76 147.03,126.77 147.37,126.77C147.71,126.77 148.04,126.77 148.38,126.77C148.72,126.77 149.05,126.77 149.39,126.77C149.72,126.77 150.06,126.77 150.39,126.77C150.73,126.77 151.06,126.77 151.4,126.77C151.74,126.77 152.07,126.76 152.41,126.76C152.75,126.76 153.08,126.75 153.42,126.75C153.76,126.74 154.09,126.74 154.43,126.73C154.77,126.72 155.1,126.72 155.44,126.71C155.78,126.7 156.11,126.68 156.45,126.67C156.79,126.66 157.12,126.65 157.46,126.64C157.8,126.63 158.13,126.62 158.47,126.61C158.81,126.6 159.14,126.59 159.48,126.59C159.82,126.59 160.15,126.6 160.49,126.6C160.83,126.61 161.16,126.61 161.5,126.62C161.84,126.63 162.17,126.64 162.51,126.65C162.85,126.66 163.18,126.68 163.52,126.69C163.85,126.7 164.19,126.71 164.52,126.72C164.86,126.73 165.19,126.73 165.53,126.74C165.87,126.74 166.2,126.75 166.54,126.75C166.88,126.75 167.21,126.76 167.55,126.76C167.89,126.76 168.22,126.77 168.56,126.77C168.9,126.77 169.23,126.77 169.57,126.77C169.91,126.77 170.24,126.77 170.58,126.77C170.92,126.77 171.25,126.77 171.59,126.77C171.93,126.77 172.26,126.77 172.6,126.77C172.94,126.77 173.27,126.77 173.61,126.77C173.95,126.77 174.28,126.77 174.62,126.77C174.96,126.77 175.29,126.77 175.63,126.77C175.97,126.77 176.3,126.76 176.64,126.76C176.98,126.76 177.31,126.76 177.65,126.76C177.98,126.76 178.32,126.75 178.65,126.75C178.99,126.75 179.32,126.75 179.66,126.75C180,126.75 180.33,126.74 180.67,126.74C181.01,126.74 181.34,126.74 181.68,126.74C182.02,126.74 182.35,126.75 182.69,126.75C183.03,126.75 183.36,126.75 183.7,126.75C184.04,126.75 184.37,126.76 184.71,126.76C185.05,126.76 185.38,126.76 185.72,126.76C186.06,126.76 186.39,126.76 186.73,126.76C187.07,126.76 187.4,126.77 187.74,126.77C188.08,126.77 188.41,126.77 188.75,126.77C189.09,126.77 189.42,126.77 189.76,126.77C190.1,126.77 190.43,126.77 190.77,126.77C191.11,126.77 191.44,126.77 191.78,126.77C192.11,126.77 192.45,126.77 192.78,126.77C193.12,126.77 193.45,126.77 193.79,126.77C194.13,126.77 194.46,126.77 194.8,126.77C195.14,126.77 195.47,126.77 195.81,126.77C196.15,126.77 196.48,126.77 196.82,126.77C197.16,126.77 197.49,126.77 197.83,126.77C198.17,126.77 198.5,126.77 198.84,126.77C199.18,126.77 199.51,126.77 199.85,126.77C200.19,126.77 200.52,126.77 200.86,126.77C201.2,126.77 201.53,126.77 201.87,126.77C202.21,126.77 202.54,126.77 202.88,126.77C203.22,126.77 203.55,126.77 203.89,126.77C204.23,126.77 204.56,126.77 204.9,126.77C205.24,126.77 205.57,126.77 205.91,126.77C206.25,126.77 206.58,126.77 206.92,126.77C207.25,126.77 207.59,126.77 207.92,126.77C208.26,126.77 208.59,126.76 208.93,126.76C209.27,126.76 209.6,126.76 209.94,126.76C210.28,126.76 210.61,126.75 210.95,126.75C211.29,126.75 211.62,126.75 211.96,126.75C212.3,126.75 212.63,126.75 212.97,126.75C213.31,126.75 213.64,126.74 213.98,126.74C214.32,126.74 214.65,126.75 214.99,126.75C215.33,126.75 215.66,126.75 216,126.75C216.34,126.75 216.67,126.75 217.01,126.75C217.35,126.75 217.68,126.76 218.02,126.76C218.36,126.76 218.69,126.76 219.03,126.76C219.37,126.76 219.7,126.77 220.04,126.77C220.38,126.77 220.71,126.77 221.05,126.77C221.38,126.77 221.72,126.77 222.05,126.77C222.39,126.77 222.72,126.77 223.06,126.77C223.4,126.77 223.73,126.77 224.07,126.77C224.41,126.77 224.74,126.77 225.08,126.77C225.42,126.77 225.75,126.77 226.09,126.77C226.43,126.77 226.76,126.77 227.1,126.77C227.44,126.77 227.77,126.77 228.11,126.77C228.45,126.77 228.78,126.77 229.12,126.77C229.46,126.77 229.79,126.77 230.13,126.77C230.47,126.77 230.8,126.77 231.14,126.77C231.48,126.77 231.81,126.77 232.15,126.77C232.49,126.77 232.82,126.77 233.16,126.77C233.5,126.77 233.83,126.77 234.17,126.77C234.51,126.77 234.84,126.77 235.18,126.77C235.51,126.77 235.85,126.77 236.18,126.77C236.52,126.77 236.85,126.77 237.19,126.77C237.53,126.77 237.86,126.76 238.2,126.76C238.54,126.76 238.87,126.76 239.21,126.76C239.55,126.76 239.88,126.75 240.22,126.74C240.56,126.73 240.89,126.73 241.23,126.72C241.57,126.71 241.9,126.7 242.24,126.69C242.58,126.68 242.91,126.66 243.25,126.65C243.59,126.64 243.92,126.62 244.26,126.61C244.6,126.6 244.93,126.59 245.27,126.58C245.61,126.57 245.94,126.57 246.28,126.57C246.62,126.57 246.95,126.58 247.29,126.58C247.63,126.59 247.96,126.59 248.3,126.6C248.64,126.61 248.97,126.63 249.31,126.64C249.64,126.65 249.98,126.67 250.31,126.68C250.65,126.69 250.98,126.71 251.32,126.72C251.66,126.73 251.99,126.73 252.33,126.74C252.67,126.74 253,126.75 253.34,126.75C253.68,126.75 254.01,126.76 254.35,126.76C254.69,126.76 255.02,126.77 255.36,126.77C255.7,126.77 256.03,126.77 256.37,126.77C256.71,126.77 257.04,126.77 257.38,126.77C257.72,126.77 258.05,126.77 258.39,126.77C258.73,126.77 259.06,126.77 259.4,126.77C259.74,126.77 260.07,126.77 260.41,126.77C260.75,126.77 261.08,126.77 261.42,126.77C261.76,126.77 262.09,126.76 262.43,126.76C262.77,126.76 263.1,126.76 263.44,126.76C263.77,126.76 264.11,126.76 264.44,126.76C264.78,126.76 265.11,126.75 265.45,126.75C265.79,126.75 266.12,126.75 266.46,126.75C266.8,126.75 267.13,126.74 267.47,126.74C267.81,126.74 268.14,126.74 268.48,126.74C268.82,126.74 269.15,126.75 269.49,126.75C269.83,126.75 270.16,126.75 270.5,126.75C270.84,126.75 271.17,126.76 271.51,126.76C271.85,126.76 272.18,126.76 272.52,126.76C272.86,126.76 273.19,126.76 273.53,126.76C273.87,126.76 274.2,126.77 274.54,126.77C274.88,126.77 275.21,126.77 275.55,126.77C275.89,126.77 276.22,126.77 276.56,126.77C276.9,126.77 277.23,126.77 277.57,126.77C277.9,126.77 278.24,126.77 278.57,126.77C278.91,126.77 279.24,126.77 279.58,126.77C279.92,126.77 280.25,126.77 280.59,126.77C280.93,126.77 281.26,126.77 281.6,126.77C281.94,126.77 282.27,126.77 282.61,126.77C282.95,126.77 283.28,126.77 283.62,126.77C283.96,126.77 284.29,126.77 284.63,126.77C284.97,126.77 285.3,126.77 285.64,126.77C285.98,126.77 286.31,126.77 286.65,126.77C286.99,126.77 287.32,126.77 287.66,126.77C288,126.77 288.33,126.77 288.67,126.77C289.01,126.77 289.34,126.77 289.68,126.77C290.02,126.77 290.35,126.77 290.69,126.77C291.03,126.77 291.36,126.77 291.7,126.77C292.04,126.77 292.37,126.77 292.71,126.77C293.04,126.77 293.38,126.77 293.71,126.77C294.05,126.77 294.38,126.77 294.72,126.77C295.06,126.77 295.39,126.77 295.73,126.77C296.07,126.77 296.4,126.77 296.74,126.77C297.08,126.77 297.41,126.77 297.75,126.77C298.09,126.77 298.42,126.77 298.76,126.77C299.1,126.77 299.43,126.77 299.77,126.77C300.11,126.77 300.44,126.77 300.78,126.77C301.12,126.77 301.45,126.77 301.79,126.77C302.13,126.77 302.46,126.77 302.8,126.77C303.14,126.77 303.47,126.77 303.81,126.77C304.15,126.77 304.48,126.77 304.82,126.77C305.16,126.77 305.49,126.77 305.83,126.77C306.17,126.77 306.5,126.77 306.84,126.77C307.17,126.77 307.51,126.77 307.84,126.77C308.18,126.77 308.51,126.77 308.85,126.77C309.19,126.77 309.52,126.77 309.86,126.77C310.2,126.77 310.53,126.77 310.87,126.77C311.21,126.77 311.54,126.77 311.88,126.77C312.22,126.77 312.55,126.76 312.89,126.76C313.23,126.76 313.56,126.76 313.9,126.76C314.24,126.76 314.57,126.76 314.91,126.76C315.25,126.76 315.58,126.75 315.92,126.75C316.26,126.75 316.59,126.75 316.93,126.75C317.27,126.75 317.6,126.74 317.94,126.74C318.28,126.74 318.61,126.74 318.95,126.74C319.29,126.74 319.62,126.74 319.96,126.74C320.3,126.74 320.63,126.74 320.97,126.74C321.3,126.74 321.64,126.74 321.97,126.74C322.31,126.74 322.64,126.74 322.98,126.74C323.32,126.74 323.65,126.74 323.99,126.74C324.33,126.74 324.66,126.74 325,126.74C325.34,126.74 325.67,126.74 326.01,126.74C326.35,126.74 326.68,126.75 327.02,126.75C327.36,126.75 327.69,126.75 328.03,126.75C328.37,126.75 328.7,126.75 329.04,126.75C329.38,126.75 329.71,126.75 330.05,126.75C330.39,126.75 330.72,126.75 331.06,126.75C331.4,126.75 331.73,126.74 332.07,126.74C332.41,126.74 332.74,126.74 333.08,126.74C333.42,126.74 333.75,126.75 334.09,126.75C334.43,126.75 334.76,126.75 335.1,126.75C335.43,126.75 335.77,126.75 336.1,126.75C336.44,126.75 336.77,126.76 337.11,126.76C337.45,126.76 337.78,126.76 338.12,126.76Q338.46,126.76 339.13,126.77L339.13,126.77" style="vector-effect: non-scaling-stroke; stroke-width: 2px; stroke: rgb(255, 161, 90); stroke-opacity: 1; fill: rgb(255, 161, 90); fill-opacity: 0.5;"/><path class="meanline" d="M46.09,91.0797119140625V126.77" style="fill: none; vector-effect: non-scaling-stroke; stroke-width: 2px; stroke-dasharray: 4px, 2px; stroke: rgb(255, 161, 90); stroke-opacity: 1;"/></g><g class="trace violins" style="opacity: 1;"><path class="violin" d="M24.67,82.46L24.67,82.16Q25.36,81.96 25.68,81.78C26.03,81.59 26.37,81.35 26.68,81.04C27.04,80.68 27.38,80.24 27.69,79.73C28.06,79.12 28.38,78.38 28.69,77.58C29.06,76.62 29.39,75.52 29.7,74.34C30.07,72.96 30.38,71.41 30.7,69.79C31.06,67.95 31.39,65.94 31.71,63.86C32.06,61.58 32.38,59.13 32.71,56.66C33.06,54.03 33.39,51.27 33.72,48.53C34.06,45.72 34.38,42.82 34.72,40C35.05,37.24 35.38,34.43 35.73,31.79C36.05,29.34 36.37,26.88 36.73,24.69C37.04,22.79 37.33,20.89 37.73,19.39C38.03,18.25 38.26,16.95 38.74,16.43C39.02,16.12 39.45,15.89 39.74,16C40.16,16.15 40.45,17.2 40.75,18C41.16,19.09 41.44,20.57 41.75,22.02C42.11,23.69 42.43,25.6 42.76,27.47C43.11,29.45 43.42,31.56 43.76,33.61C44.09,35.65 44.43,37.76 44.77,39.74C45.1,41.62 45.42,43.5 45.77,45.22C46.09,46.78 46.42,48.29 46.78,49.64C47.09,50.81 47.41,51.92 47.78,52.89C48.09,53.72 48.43,54.45 48.79,55.14C49.11,55.76 49.45,56.29 49.79,56.85C50.12,57.41 50.47,57.93 50.79,58.51C51.14,59.14 51.48,59.8 51.8,60.5C52.15,61.27 52.47,62.11 52.8,62.95C53.14,63.84 53.47,64.78 53.81,65.7C54.14,66.62 54.47,67.56 54.81,68.45C55.14,69.29 55.47,70.13 55.82,70.89C56.14,71.58 56.46,72.25 56.82,72.82C57.14,73.33 57.47,73.8 57.83,74.18C58.15,74.51 58.48,74.79 58.83,75.01C59.15,75.21 59.5,75.34 59.84,75.45C60.17,75.56 60.51,75.6 60.84,75.67C61.18,75.74 61.52,75.79 61.85,75.89C62.19,75.99 62.52,76.12 62.85,76.28C63.19,76.45 63.53,76.67 63.86,76.9C64.2,77.14 64.53,77.42 64.86,77.68C65.19,77.95 65.52,78.24 65.86,78.49C66.19,78.73 66.52,78.97 66.87,79.14C67.2,79.3 67.53,79.44 67.87,79.51C68.2,79.58 68.55,79.59 68.88,79.56C69.22,79.53 69.55,79.43 69.88,79.33C70.22,79.23 70.55,79.09 70.89,78.98C71.22,78.87 71.55,78.74 71.89,78.68C72.22,78.62 72.57,78.58 72.9,78.6C73.24,78.62 73.57,78.71 73.9,78.82C74.24,78.94 74.58,79.12 74.91,79.31C75.25,79.5 75.58,79.74 75.91,79.95C76.25,80.16 76.58,80.4 76.92,80.59C77.25,80.78 77.58,80.95 77.92,81.09C78.25,81.22 78.58,81.33 78.92,81.4C79.25,81.47 79.59,81.5 79.93,81.53C80.26,81.56 80.6,81.56 80.93,81.56C81.27,81.56 81.6,81.55 81.94,81.55C82.27,81.55 82.61,81.55 82.94,81.57C83.28,81.59 83.61,81.61 83.95,81.65C84.28,81.68 84.62,81.74 84.95,81.78C85.29,81.83 85.62,81.87 85.96,81.92C86.29,81.96 86.63,82.02 86.96,82.05C87.3,82.08 87.63,82.11 87.97,82.11C88.3,82.11 88.64,82.1 88.97,82.07C89.31,82.04 89.65,82 89.98,81.93C90.32,81.86 90.65,81.77 90.98,81.67C91.31,81.57 91.65,81.45 91.98,81.34C92.32,81.23 92.65,81.11 92.99,81.01C93.32,80.91 93.65,80.81 93.99,80.75C94.32,80.69 94.66,80.66 95,80.66C95.33,80.66 95.67,80.69 96,80.75C96.34,80.81 96.68,80.9 97.01,81C97.35,81.1 97.68,81.23 98.01,81.34C98.35,81.45 98.68,81.57 99.02,81.68C99.35,81.78 99.68,81.89 100.02,81.97C100.35,82.05 100.69,82.12 101.03,82.18C101.36,82.24 101.7,82.29 102.03,82.32C102.37,82.36 102.7,82.37 103.04,82.39C103.37,82.41 103.71,82.42 104.04,82.43C104.37,82.44 104.71,82.43 105.04,82.43C105.38,82.43 105.71,82.43 106.05,82.42C106.38,82.41 106.72,82.4 107.05,82.39C107.39,82.38 107.72,82.36 108.06,82.34C108.39,82.32 108.73,82.29 109.06,82.26C109.4,82.23 109.73,82.2 110.07,82.15C110.4,82.11 110.74,82.05 111.07,81.99C111.41,81.93 111.74,81.85 112.08,81.77C112.41,81.69 112.75,81.61 113.08,81.52C113.42,81.43 113.75,81.33 114.09,81.25C114.42,81.17 114.75,81.09 115.09,81.04C115.42,80.99 115.76,80.95 116.1,80.94C116.43,80.93 116.77,80.94 117.1,80.98C117.44,81.02 117.78,81.09 118.11,81.17C118.45,81.25 118.78,81.35 119.11,81.44C119.44,81.54 119.77,81.65 120.11,81.74C120.44,81.83 120.78,81.92 121.12,82C121.45,82.08 121.78,82.14 122.12,82.2C122.45,82.25 122.79,82.3 123.13,82.33C123.46,82.36 123.8,82.38 124.13,82.4C124.47,82.42 124.8,82.43 125.14,82.44C125.47,82.45 125.81,82.45 126.14,82.45C126.48,82.45 126.81,82.46 127.15,82.46C127.48,82.46 127.82,82.46 128.15,82.46C128.49,82.46 128.82,82.45 129.16,82.45C129.49,82.45 129.83,82.44 130.16,82.44C130.5,82.43 130.83,82.43 131.17,82.42C131.5,82.41 131.84,82.4 132.17,82.38C132.5,82.36 132.84,82.34 133.17,82.32C133.51,82.29 133.84,82.26 134.18,82.23C134.51,82.2 134.85,82.16 135.18,82.12C135.52,82.08 135.85,82.04 136.19,82.01C136.52,81.98 136.86,81.96 137.19,81.94C137.53,81.92 137.86,81.91 138.2,81.91C138.53,81.91 138.87,81.92 139.2,81.94C139.54,81.96 139.87,81.99 140.21,82.02C140.54,82.05 140.88,82.09 141.21,82.13C141.55,82.17 141.88,82.21 142.22,82.24C142.55,82.27 142.89,82.31 143.22,82.33C143.56,82.36 143.89,82.37 144.23,82.39C144.56,82.41 144.9,82.42 145.23,82.43C145.56,82.44 145.9,82.45 146.23,82.45C146.57,82.46 146.9,82.46 147.24,82.46C147.57,82.46 147.91,82.46 148.24,82.46C148.58,82.46 148.91,82.46 149.25,82.46C149.58,82.46 149.92,82.46 150.25,82.46C150.59,82.46 150.92,82.46 151.26,82.46C151.59,82.46 151.93,82.45 152.26,82.45C152.6,82.45 152.93,82.44 153.27,82.44C153.6,82.44 153.94,82.44 154.27,82.43C154.61,82.42 154.94,82.41 155.28,82.4C155.61,82.39 155.95,82.38 156.28,82.37C156.62,82.36 156.95,82.34 157.29,82.33C157.62,82.32 157.96,82.31 158.29,82.3C158.63,82.29 158.96,82.28 159.3,82.28C159.63,82.28 159.97,82.28 160.3,82.28C160.63,82.28 160.97,82.29 161.3,82.3C161.64,82.31 161.97,82.32 162.31,82.33C162.64,82.34 162.98,82.35 163.31,82.36C163.65,82.37 163.98,82.37 164.32,82.38C164.65,82.38 164.99,82.39 165.32,82.39C165.66,82.39 165.99,82.39 166.33,82.38C166.66,82.37 167,82.36 167.33,82.35C167.67,82.34 168,82.33 168.34,82.32C168.67,82.31 169.01,82.3 169.34,82.29C169.68,82.28 170.01,82.28 170.35,82.28C170.68,82.28 171.02,82.28 171.35,82.28C171.69,82.28 172.02,82.3 172.36,82.31C172.69,82.32 173.03,82.33 173.36,82.34C173.69,82.35 174.03,82.37 174.36,82.38C174.7,82.39 175.03,82.4 175.37,82.41C175.7,82.42 176.04,82.42 176.37,82.43C176.71,82.44 177.04,82.45 177.38,82.45C177.71,82.45 178.05,82.45 178.38,82.45C178.72,82.45 179.05,82.46 179.39,82.46C179.72,82.46 180.06,82.46 180.39,82.46C180.73,82.46 181.06,82.46 181.4,82.46C181.73,82.46 182.07,82.46 182.4,82.46C182.74,82.46 183.07,82.46 183.41,82.46C183.74,82.46 184.08,82.46 184.41,82.46C184.75,82.46 185.08,82.46 185.42,82.46C185.75,82.46 186.09,82.46 186.42,82.46C186.75,82.46 187.09,82.46 187.42,82.46C187.76,82.46 188.09,82.46 188.43,82.46C188.76,82.46 189.1,82.46 189.43,82.46C189.77,82.46 190.1,82.46 190.44,82.46C190.77,82.46 191.11,82.46 191.44,82.46C191.78,82.46 192.11,82.46 192.45,82.46C192.78,82.46 193.12,82.46 193.45,82.46C193.79,82.46 194.12,82.46 194.46,82.46C194.79,82.46 195.13,82.46 195.46,82.46C195.8,82.46 196.13,82.46 196.47,82.46C196.8,82.46 197.14,82.46 197.47,82.46C197.81,82.46 198.14,82.46 198.48,82.46C198.81,82.46 199.15,82.46 199.48,82.46C199.81,82.46 200.15,82.46 200.48,82.46C200.82,82.46 201.15,82.46 201.49,82.46C201.82,82.46 202.16,82.46 202.49,82.46C202.83,82.46 203.16,82.46 203.5,82.46C203.83,82.46 204.17,82.46 204.5,82.46C204.84,82.46 205.17,82.46 205.51,82.46C205.84,82.46 206.18,82.46 206.51,82.46C206.85,82.46 207.18,82.46 207.52,82.46C207.85,82.46 208.19,82.46 208.52,82.46C208.86,82.46 209.19,82.46 209.53,82.46C209.86,82.46 210.2,82.46 210.53,82.46C210.87,82.46 211.2,82.46 211.54,82.46C211.87,82.46 212.21,82.46 212.54,82.46C212.88,82.46 213.21,82.46 213.55,82.46C213.88,82.46 214.22,82.46 214.55,82.46C214.88,82.46 215.22,82.45 215.55,82.45C215.89,82.45 216.22,82.45 216.56,82.44C216.89,82.44 217.23,82.43 217.56,82.42C217.9,82.41 218.23,82.4 218.57,82.39C218.9,82.38 219.24,82.36 219.57,82.35C219.91,82.34 220.24,82.33 220.58,82.32C220.91,82.31 221.25,82.3 221.58,82.29C221.92,82.28 222.25,82.28 222.59,82.28C222.92,82.28 223.26,82.29 223.59,82.29C223.93,82.3 224.26,82.3 224.6,82.31C224.93,82.32 225.27,82.34 225.6,82.35C225.94,82.36 226.27,82.37 226.61,82.38C226.94,82.39 227.28,82.4 227.61,82.41C227.94,82.42 228.28,82.43 228.61,82.44C228.95,82.45 229.28,82.45 229.62,82.45C229.95,82.45 230.29,82.46 230.62,82.46C230.96,82.46 231.29,82.46 231.63,82.46C231.96,82.46 232.3,82.46 232.63,82.46C232.97,82.46 233.3,82.46 233.64,82.46C233.97,82.46 234.31,82.46 234.64,82.46C234.98,82.46 235.31,82.46 235.65,82.46C235.98,82.46 236.32,82.46 236.65,82.46C236.99,82.46 237.32,82.46 237.66,82.46C237.99,82.46 238.33,82.46 238.66,82.46C239,82.46 239.33,82.46 239.67,82.46C240,82.46 240.34,82.46 240.67,82.46C241,82.46 241.34,82.46 241.67,82.46C242.01,82.46 242.34,82.46 242.68,82.46C243.01,82.46 243.35,82.46 243.68,82.46C244.02,82.46 244.35,82.46 244.69,82.46C245.02,82.46 245.36,82.46 245.69,82.46C246.03,82.46 246.36,82.46 246.7,82.46C247.03,82.46 247.37,82.46 247.7,82.46C248.04,82.46 248.37,82.46 248.71,82.46C249.04,82.46 249.38,82.46 249.71,82.46C250.05,82.46 250.38,82.46 250.72,82.46C251.05,82.46 251.39,82.46 251.72,82.46C252.06,82.46 252.39,82.46 252.73,82.46C253.06,82.46 253.4,82.46 253.73,82.46C254.06,82.46 254.4,82.46 254.73,82.46C255.07,82.46 255.4,82.46 255.74,82.46C256.07,82.46 256.41,82.46 256.74,82.46C257.08,82.46 257.41,82.46 257.75,82.46C258.08,82.46 258.42,82.46 258.75,82.46C259.09,82.46 259.42,82.46 259.76,82.46C260.09,82.46 260.43,82.45 260.76,82.45C261.1,82.45 261.43,82.45 261.77,82.44C262.1,82.44 262.44,82.43 262.77,82.42C263.11,82.41 263.44,82.41 263.78,82.4C264.11,82.39 264.45,82.37 264.78,82.36C265.12,82.35 265.45,82.33 265.79,82.32C266.12,82.31 266.46,82.3 266.79,82.29C267.13,82.28 267.46,82.28 267.8,82.28C268.13,82.28 268.47,82.28 268.8,82.28C269.13,82.28 269.47,82.29 269.8,82.3C270.14,82.31 270.47,82.33 270.81,82.34C271.14,82.35 271.48,82.37 271.81,82.38C272.15,82.39 272.48,82.4 272.82,82.41C273.15,82.42 273.49,82.42 273.82,82.43C274.16,82.44 274.49,82.45 274.83,82.45C275.16,82.45 275.5,82.45 275.83,82.45C276.17,82.45 276.5,82.46 276.84,82.46C277.17,82.46 277.51,82.46 277.84,82.46C278.18,82.46 278.51,82.46 278.85,82.46C279.18,82.46 279.52,82.46 279.85,82.46C280.19,82.46 280.52,82.46 280.86,82.46C281.19,82.46 281.53,82.46 281.86,82.46C282.19,82.46 282.53,82.46 282.86,82.46C283.2,82.46 283.53,82.46 283.87,82.46C284.2,82.46 284.54,82.46 284.87,82.46C285.21,82.46 285.54,82.46 285.88,82.46C286.21,82.46 286.55,82.46 286.88,82.46C287.22,82.46 287.55,82.46 287.89,82.46C288.22,82.46 288.56,82.46 288.89,82.46C289.23,82.46 289.56,82.46 289.9,82.46C290.23,82.46 290.57,82.46 290.9,82.46C291.24,82.46 291.57,82.46 291.91,82.46C292.24,82.46 292.58,82.46 292.91,82.46C293.25,82.46 293.58,82.46 293.92,82.46C294.25,82.46 294.59,82.46 294.92,82.46C295.25,82.46 295.59,82.46 295.92,82.46C296.26,82.46 296.59,82.46 296.93,82.46C297.26,82.46 297.6,82.46 297.93,82.46C298.27,82.46 298.6,82.46 298.94,82.46C299.27,82.46 299.61,82.46 299.94,82.46C300.28,82.46 300.61,82.46 300.95,82.46C301.28,82.46 301.62,82.46 301.95,82.46C302.29,82.46 302.62,82.46 302.96,82.46C303.29,82.46 303.63,82.45 303.96,82.45C304.3,82.45 304.63,82.44 304.97,82.44C305.3,82.44 305.64,82.44 305.97,82.43C306.31,82.42 306.64,82.41 306.98,82.4C307.31,82.39 307.65,82.38 307.98,82.37C308.32,82.36 308.65,82.34 308.99,82.33C309.32,82.32 309.66,82.31 309.99,82.3C310.32,82.29 310.66,82.28 310.99,82.28C311.33,82.28 311.66,82.28 312,82.28C312.33,82.28 312.67,82.29 313,82.3C313.34,82.31 313.67,82.32 314.01,82.33C314.34,82.34 314.68,82.36 315.01,82.37C315.35,82.38 315.68,82.39 316.02,82.4C316.35,82.41 316.69,82.42 317.02,82.43C317.36,82.44 317.69,82.44 318.03,82.44C318.36,82.44 318.7,82.45 319.03,82.45C319.37,82.45 319.7,82.46 320.04,82.46C320.37,82.46 320.71,82.46 321.04,82.46C321.38,82.46 321.71,82.46 322.05,82.46C322.38,82.46 322.72,82.46 323.05,82.46C323.38,82.46 323.72,82.46 324.05,82.46C324.39,82.46 324.72,82.46 325.06,82.46C325.39,82.46 325.73,82.45 326.06,82.45C326.4,82.45 326.73,82.45 327.07,82.44C327.4,82.43 327.74,82.42 328.07,82.41C328.41,82.4 328.74,82.39 329.08,82.38C329.41,82.37 329.75,82.36 330.08,82.35C330.42,82.34 330.75,82.32 331.09,82.31C331.42,82.3 331.76,82.29 332.09,82.29C332.43,82.28 332.76,82.28 333.1,82.28C333.43,82.28 333.77,82.29 334.1,82.29C334.44,82.3 334.77,82.3 335.11,82.31C335.44,82.32 335.78,82.34 336.11,82.35C336.44,82.36 336.78,82.38 337.11,82.39C337.45,82.4 337.78,82.41 338.12,82.42Q338.45,82.43 339.12,82.44L339.12,82.46" style="vector-effect: non-scaling-stroke; stroke-width: 2px; stroke: rgb(25, 211, 243); stroke-opacity: 1; fill: rgb(25, 211, 243); fill-opacity: 0.5;"/><path class="meanline" d="M47.17,51.04508972167969V82.46" style="fill: none; vector-effect: non-scaling-stroke; stroke-width: 2px; stroke-dasharray: 4px, 2px; stroke: rgb(25, 211, 243); stroke-opacity: 1;"/></g></g></g><g class="overplot"/><path class="xlines-above crisp" d="M0,0" style="fill: none;"/><path class="ylines-above crisp" d="M0,0" style="fill: none;"/><g class="overlines-above"/><g class="xaxislayer-above"><g class="xtick"><text text-anchor="middle" x="0" y="433" transform="translate(199.86,0)" style="font-family: 'Open Sans', verdana, arial, sans-serif; font-size: 12px; fill: rgb(42, 63, 95); fill-opacity: 1; white-space: pre; opacity: 1;">0</text></g><g class="xtick"><text text-anchor="middle" x="0" y="433" style="font-family: 'Open Sans', verdana, arial, sans-serif; font-size: 12px; fill: rgb(42, 63, 95); fill-opacity: 1; white-space: pre; opacity: 1;" transform="translate(286.49,0)">200</text></g><g class="xtick"><text text-anchor="middle" x="0" y="433" style="font-family: 'Open Sans', verdana, arial, sans-serif; font-size: 12px; fill: rgb(42, 63, 95); fill-opacity: 1; white-space: pre; opacity: 1;" transform="translate(373.12,0)">400</text></g><g class="xtick"><text text-anchor="middle" x="0" y="433" style="font-family: 'Open Sans', verdana, arial, sans-serif; font-size: 12px; fill: rgb(42, 63, 95); fill-opacity: 1; white-space: pre; opacity: 1;" transform="translate(459.76,0)">600</text></g><g class="xtick"><text text-anchor="middle" x="0" y="433" style="font-family: 'Open Sans', verdana, arial, sans-serif; font-size: 12px; fill: rgb(42, 63, 95); fill-opacity: 1; white-space: pre; opacity: 1;" transform="translate(546.39,0)">800</text></g></g><g class="yaxislayer-above"><g class="ytick"><text text-anchor="end" x="169" y="4.199999999999999" transform="translate(0,404)" style="font-family: 'Open Sans', verdana, arial, sans-serif; font-size: 12px; fill: rgb(42, 63, 95); fill-opacity: 1; white-space: pre; opacity: 1;">language_translation_skills</text></g><g class="ytick"><text text-anchor="end" x="169" y="4.199999999999999" transform="translate(0,359.69)" style="font-family: 'Open Sans', verdana, arial, sans-serif; font-size: 12px; fill: rgb(42, 63, 95); fill-opacity: 1; white-space: pre; opacity: 1;">writing_skills</text></g><g class="ytick"><text text-anchor="end" x="169" y="4.199999999999999" transform="translate(0,315.38)" style="font-family: 'Open Sans', verdana, arial, sans-serif; font-size: 12px; fill: rgb(42, 63, 95); fill-opacity: 1; white-space: pre; opacity: 1;">design_skills</text></g><g class="ytick"><text text-anchor="end" x="169" y="4.199999999999999" transform="translate(0,271.08000000000004)" style="font-family: 'Open Sans', verdana, arial, sans-serif; font-size: 12px; fill: rgb(42, 63, 95); fill-opacity: 1; white-space: pre; opacity: 1;">marketing_business_skills</text></g><g class="ytick"><text text-anchor="end" x="169" y="4.199999999999999" transform="translate(0,226.76999999999998)" style="font-family: 'Open Sans', verdana, arial, sans-serif; font-size: 12px; fill: rgb(42, 63, 95); fill-opacity: 1; white-space: pre; opacity: 1;">technical_programming_skills</text></g><g class="ytick"><text text-anchor="end" x="169" y="4.199999999999999" transform="translate(0,182.45999999999998)" style="font-family: 'Open Sans', verdana, arial, sans-serif; font-size: 12px; fill: rgb(42, 63, 95); fill-opacity: 1; white-space: pre; opacity: 1;">finance_accounting_skills</text></g></g><g class="overaxes-above"/></g></g><g class="polarlayer"/><g class="smithlayer"/><g class="ternarylayer"/><g class="geolayer"/><g class="funnelarealayer"/><g class="pielayer"/><g class="iciclelayer"/><g class="treemaplayer"/><g class="sunburstlayer"/><g class="glimages"/><defs id="topdefs-b4d89e"><g class="clips"/></defs><g class="layer-above"><g class="imagelayer"/><g class="shapelayer"/></g><g class="infolayer"><g class="g-gtitle"/><g class="g-xtitle"><text class="xtitle" x="395" y="460.8" text-anchor="middle" style="font-family: 'Open Sans', verdana, arial, sans-serif; font-size: 14px; fill: rgb(42, 63, 95); opacity: 1; font-weight: normal; white-space: pre;">Hourly rate ($)</text></g><g class="g-ytitle"/><g class="annotation" data-index="0" style="opacity: 1;"><g class="annotation-text-g" transform="rotate(0,373.12,395.14)"><g class="cursor-pointer" transform="translate(295,386)"><rect class="bg" x="0.5" y="0.5" width="156" height="17" style="stroke-width: 1px; stroke: rgb(0, 0, 0); stroke-opacity: 0; fill: rgb(0, 0, 0); fill-opacity: 0;"/><text class="annotation-text" text-anchor="middle" x="78.28125" y="13" style="font-family: 'Open Sans', verdana, arial, sans-serif; font-size: 12px; fill: rgb(42, 63, 95); fill-opacity: 1; white-space: pre;">Mean: 32.37 | Median: 20.00</text></g></g></g><g class="annotation" data-index="1" style="opacity: 1;"><g class="annotation-text-g" transform="rotate(0,373.12,350.83000000000004)"><g class="cursor-pointer" transform="translate(295,342)"><rect class="bg" x="0.5" y="0.5" width="156" height="17" style="stroke-width: 1px; stroke: rgb(0, 0, 0); stroke-opacity: 0; fill: rgb(0, 0, 0); fill-opacity: 0;"/><text class="annotation-text" text-anchor="middle" x="78.28125" y="13" style="font-family: 'Open Sans', verdana, arial, sans-serif; font-size: 12px; fill: rgb(42, 63, 95); fill-opacity: 1; white-space: pre;">Mean: 35.31 | Median: 25.00</text></g></g></g><g class="annotation" data-index="2" style="opacity: 1;"><g class="annotation-text-g" transform="rotate(0,373.12,306.52)"><g class="cursor-pointer" transform="translate(295,298)"><rect class="bg" x="0.5" y="0.5" width="156" height="17" style="stroke-width: 1px; stroke: rgb(0, 0, 0); stroke-opacity: 0; fill: rgb(0, 0, 0); fill-opacity: 0;"/><text class="annotation-text" text-anchor="middle" x="78.28125" y="13" style="font-family: 'Open Sans', verdana, arial, sans-serif; font-size: 12px; fill: rgb(42, 63, 95); fill-opacity: 1; white-space: pre;">Mean: 35.55 | Median: 25.00</text></g></g></g><g class="annotation" data-index="3" style="opacity: 1;"><g class="annotation-text-g" transform="rotate(0,373.12,262.22)"><g class="cursor-pointer" transform="translate(295,253)"><rect class="bg" x="0.5" y="0.5" width="156" height="17" style="stroke-width: 1px; stroke: rgb(0, 0, 0); stroke-opacity: 0; fill: rgb(0, 0, 0); fill-opacity: 0;"/><text class="annotation-text" text-anchor="middle" x="78.28125" y="13" style="font-family: 'Open Sans', verdana, arial, sans-serif; font-size: 12px; fill: rgb(42, 63, 95); fill-opacity: 1; white-space: pre;">Mean: 37.23 | Median: 25.00</text></g></g></g><g class="annotation" data-index="4" style="opacity: 1;"><g class="annotation-text-g" transform="rotate(0,373.12,217.91)"><g class="cursor-pointer" transform="translate(295,209)"><rect class="bg" x="0.5" y="0.5" width="156" height="17" style="stroke-width: 1px; stroke: rgb(0, 0, 0); stroke-opacity: 0; fill: rgb(0, 0, 0); fill-opacity: 0;"/><text class="annotation-text" text-anchor="middle" x="78.28125" y="13" style="font-family: 'Open Sans', verdana, arial, sans-serif; font-size: 12px; fill: rgb(42, 63, 95); fill-opacity: 1; white-space: pre;">Mean: 37.48 | Median: 25.00</text></g></g></g><g class="annotation" data-index="5" style="opacity: 1;"><g class="annotation-text-g" transform="rotate(0,373.12,173.6)"><g class="cursor-pointer" transform="translate(295,165)"><rect class="bg" x="0.5" y="0.5" width="156" height="17" style="stroke-width: 1px; stroke: rgb(0, 0, 0); stroke-opacity: 0; fill: rgb(0, 0, 0); fill-opacity: 0;"/><text class="annotation-text" text-anchor="middle" x="78.28125" y="13" style="font-family: 'Open Sans', verdana, arial, sans-serif; font-size: 12px; fill: rgb(42, 63, 95); fill-opacity: 1; white-space: pre;">Mean: 39.97 | Median: 25.00</text></g></g></g></g></svg>